<?xml version="1.0" encoding="utf-8"?>
<!-- Generator: Adobe Illustrator 23.0.1, SVG Export Plug-In . SVG Version: 6.00 Build 0)  -->
<svg version="1.1" id="Layer_2" xmlns="http://www.w3.org/2000/svg" xmlns:xlink="http://www.w3.org/1999/xlink" x="0px" y="0px"
	 viewBox="0 0 49.9 38.7" style="enable-background:new 0 0 49.9 38.7;" xml:space="preserve">
<style type="text/css">
	.st0{enable-background:new    ;}
	.st1{fill:#FFFFFF;}
	.st2{fill:none;stroke:#FFFFFF;stroke-width:1.3449;stroke-miterlimit:10;}
</style>
<g class="st0">
	<path class="st1" d="M11.6,31.3l-0.5-1.4l-3,1.2l-0.7-1.7l4.8-1.9l1.5,3.8c-0.3,0.9-0.8,1.8-1.4,2.5c-0.7,0.7-1.5,1.3-2.4,1.7
		c-1.7,0.7-3.3,0.6-5-0.1c-1.7-0.7-2.8-1.9-3.5-3.6c-0.7-1.7-0.6-3.3,0.1-5S3.3,24,5,23.3c1-0.4,2-0.5,3-0.4c1,0.1,2,0.4,2.8,0.9
		l-0.9,1.6c-0.6-0.4-1.3-0.6-2-0.7c-0.7-0.1-1.4,0-2.1,0.3c-1.2,0.5-2,1.3-2.6,2.5c-0.5,1.2-0.5,2.4-0.1,3.6
		c0.5,1.2,1.3,2.1,2.5,2.6c1.2,0.5,2.4,0.5,3.6,0.1C10.3,33.3,11.1,32.4,11.6,31.3z"/>
</g>
<g class="st0">
	<path class="st1" d="M40.6,22.8l-3.8-7.9l-2,5.2l-5-2.4l2.6,8.4l-1.7,0.7l-3.9-12.5l0.1,0l7,3.3l2.8-7.2l0.1,0l5.7,11.8L40.6,22.8z
		"/>
</g>
<g class="st0">
	<path class="st1" d="M23.9,21.7l2-0.8l-1.8,9.7l1.7,4.3l-1.7,0.7l-1.7-4.3l-8-5.8l2-0.8l6,4.4L23.9,21.7z"/>
</g>
<line class="st2" x1="14.5" y1="20.6" x2="33.7" y2="1.4"/>
<line class="st2" x1="32.8" y1="32.6" x2="48.3" y2="26.3"/>
</svg>
