<?xml version="1.0" standalone="no"?>
<!DOCTYPE svg PUBLIC "-//W3C//DTD SVG 1.1//EN" "http://www.w3.org/Graphics/SVG/1.1/DTD/svg11.dtd" >
<svg xmlns="http://www.w3.org/2000/svg" xmlns:xlink="http://www.w3.org/1999/xlink" version="1.1">
<metadata>
Created by FontForge 20190801 at Mon Feb 27 23:07:30 2012
 By Jimmy Wärting
Copyright (c) 2012 by Juri Zaech. All rights reserved.
</metadata>
<defs>
<font id="Frontage-Regular" horiz-adv-x="590" >
  <font-face 
    font-family="Frontage Regular"
    font-weight="400"
    font-stretch="normal"
    units-per-em="1000"
    panose-1="2 0 5 5 0 0 0 2 0 4"
    ascent="750"
    descent="-250"
    x-height="700"
    cap-height="700"
    bbox="0 -175 1351 950"
    underline-thickness="50"
    underline-position="-100"
    unicode-range="U+0020-2212"
  />
<missing-glyph horiz-adv-x="699" 
 />
    <glyph glyph-name=".notdef" horiz-adv-x="699" 
 />
    <glyph glyph-name="B" unicode="B" horiz-adv-x="1030" 
d="M798 371c58 -35 97 -98 97 -171c0 -111 -90 -200 -200 -200h-400v700h350c110 0 200 -90 200 -200c0 -49 -18 -94 -47 -129zM645 600h-250v-200h250c55 0 100 45 100 100s-45 100 -100 100zM395 100h300c55 0 100 45 100 100s-45 100 -100 100h-300v-200z" />
    <glyph glyph-name="C" unicode="C" horiz-adv-x="939" 
d="M555 100c82 0 154 39 200 100l79 -61c-64 -84 -165 -139 -279 -139c-193 0 -350 157 -350 350s157 350 350 350c114 0 215 -55 279 -139l-79 -61c-46 61 -118 100 -200 100c-138 0 -250 -112 -250 -250s112 -250 250 -250z" />
    <glyph glyph-name="D" unicode="D" horiz-adv-x="1000" 
d="M545 0h-250v700h250c193 0 350 -157 350 -350s-157 -350 -350 -350zM395 100h150c138 0 250 112 250 250s-112 250 -250 250h-150v-500z" />
    <glyph glyph-name="E" unicode="E" horiz-adv-x="980" 
d="M795 600h-400v-275h300v-100h-300v-125h400v-100h-500v700h500v-100z" />
    <glyph glyph-name="F" unicode="F" horiz-adv-x="930" 
d="M795 600h-400v-275h300v-100h-300v-225h-100v700h500v-100z" />
    <glyph glyph-name="G" unicode="G" horiz-adv-x="989" 
d="M740 171v79h-175v100h275v-217c-64 -81 -163 -133 -275 -133c-193 0 -350 157 -350 350s157 350 350 350c114 0 215 -55 279 -139l-79 -61c-46 61 -118 100 -200 100c-138 0 -250 -112 -250 -250s112 -250 250 -250c68 0 130 27 175 71z" />
    <glyph glyph-name="H" unicode="H" horiz-adv-x="1090" 
d="M795 700h100v-700h-100v225h-400v-225h-100v700h100v-375h400v375z" />
    <glyph glyph-name="I" unicode="I" 
d="M395 700v-700h-100v700h100z" />
    <glyph glyph-name="J" unicode="J" horiz-adv-x="848" 
d="M563 250v450h100v-450c0 -138 -112 -250 -250 -250c-81 0 -152 38 -198 98l79 60c27 -35 71 -58 119 -58c83 0 150 67 150 150z" />
    <glyph glyph-name="K" unicode="K" horiz-adv-x="995" 
d="M845 0h-118l-220 351l-112 -122v-229h-100v700h100v-324l297 324h136l-250 -273z" />
    <glyph glyph-name="L" unicode="L" horiz-adv-x="920" 
d="M395 700v-600h400v-100h-500v700h100z" />
    <glyph glyph-name="M" unicode="M" horiz-adv-x="1134" 
d="M857 0l-36 468l-203 -220l-204 220l-36 -468h-100l54 700h4l282 -304l281 304h5l54 -700h-101z" />
    <glyph glyph-name="N" unicode="N" horiz-adv-x="1090" 
d="M795 700h100v-700h-6l-494 472v-472h-100v700h5l495 -472v472z" />
    <glyph glyph-name="O" unicode="O" horiz-adv-x="990" 
d="M895 350c0 -193 -157 -350 -350 -350s-350 157 -350 350s157 350 350 350s350 -157 350 -350zM545 600c-138 0 -250 -112 -250 -250s112 -250 250 -250s250 112 250 250s-112 250 -250 250z" />
    <glyph glyph-name="P" unicode="P" horiz-adv-x="900" 
d="M295 700h250c138 0 250 -112 250 -250s-112 -250 -250 -250h-150v-200h-100v700zM395 300h150c83 0 150 67 150 150s-67 150 -150 150h-150v-300z" />
    <glyph glyph-name="Q" unicode="Q" horiz-adv-x="1040" 
d="M905 350c0 -101 -43 -192 -111 -256l62 -94h-120l-24 37c-47 -24 -101 -37 -157 -37c-193 0 -350 157 -350 350s157 350 350 350s350 -157 350 -350zM555 100c36 0 70 8 101 21l-60 93h119l23 -34c41 44 67 104 67 170c0 138 -112 250 -250 250s-250 -112 -250 -250
s112 -250 250 -250z" />
    <glyph glyph-name="R" unicode="R" horiz-adv-x="963" 
d="M654 225l148 -225h-120l-131 200h-6h-150v-200h-100v700h250c138 0 250 -112 250 -250c0 -99 -57 -184 -141 -225zM395 600v-300h150c83 0 150 67 150 150s-67 150 -150 150h-150z" />
    <glyph glyph-name="S" unicode="S" horiz-adv-x="780" 
d="M445 600c-55 0 -100 -45 -100 -100s45 -100 100 -100c110 0 200 -90 200 -200c0 -111 -90 -200 -200 -200c-87 0 -161 56 -189 133l95 34c13 -39 50 -67 94 -67c55 0 100 45 100 100s-45 100 -100 100c-111 0 -200 89 -200 200c0 110 89 200 200 200
c87 0 161 -56 189 -133l-95 -34c-13 39 -51 67 -94 67z" />
    <glyph glyph-name="T" unicode="T" horiz-adv-x="950" 
d="M225 700h600v-100h-250v-600h-100v600h-250v100z" />
    <glyph glyph-name="U" unicode="U" horiz-adv-x="1050" 
d="M875 300c0 -166 -134 -300 -300 -300s-300 134 -300 300v400h100v-400c0 -111 89 -200 200 -200c110 0 200 89 200 200v400h100v-400z" />
    <glyph glyph-name="V" unicode="V" horiz-adv-x="985" 
d="M819 700h114l-383 -700h-15l-383 700h114l277 -506z" />
    <glyph glyph-name="W" unicode="W" horiz-adv-x="1133" 
d="M617 420l-161 -420h-11l-268 700h107l166 -435l167 435l166 -435l167 435h107l-268 -700h-11z" />
    <glyph glyph-name="X" unicode="X" horiz-adv-x="940" 
d="M579 360l226 -360h-118l-167 266l-167 -266h-118l226 360l-214 340h119l154 -246l154 246h118z" />
    <glyph glyph-name="Y" unicode="Y" horiz-adv-x="893" 
d="M710 700h118l-282 -449v-251h-100v251l-281 449h118l213 -340z" />
    <glyph glyph-name="Z" unicode="Z" horiz-adv-x="864" 
d="M247 700h485l-331 -600h331v-100h-500l331 600h-316v100z" />
    <glyph glyph-name="zero" unicode="0" horiz-adv-x="990" 
d="M895 350c0 -193 -157 -350 -350 -350s-350 157 -350 350s157 350 350 350s350 -157 350 -350zM545 600c-138 0 -250 -112 -250 -250s112 -250 250 -250s250 112 250 250s-112 250 -250 250z" />
    <glyph glyph-name="one" unicode="1" 
d="M395 0h-100v700h100v-700z" />
    <glyph glyph-name="two" unicode="2" horiz-adv-x="839" 
d="M632 330l-193 -230h245v-100h-460l331 394c18 22 29 50 29 80c0 69 -56 125 -125 125s-125 -56 -125 -125c0 -20 5 -39 14 -56l-90 -44c-15 30 -24 64 -24 100c0 125 101 225 225 225c125 0 225 -100 225 -225c0 -55 -19 -105 -52 -144z" />
    <glyph glyph-name="three" unicode="3" horiz-adv-x="830" 
d="M673 700l-171 -259c93 -28 161 -114 161 -216c0 -124 -101 -225 -225 -225c-83 0 -156 45 -195 112l87 50c21 -37 62 -62 108 -62c69 0 125 56 125 125s-56 125 -125 125h-116l165 250h-210v100h396z" />
    <glyph glyph-name="four" unicode="4" horiz-adv-x="895" 
d="M650 275h100v-100h-100v-175h-100v175h-299l125 533l97 -23l-96 -410h173v300h100v-300z" />
    <glyph glyph-name="five" unicode="5" horiz-adv-x="838" 
d="M458 450c124 0 225 -101 225 -225s-101 -225 -225 -225c-83 0 -156 45 -195 112l87 50c21 -37 62 -62 108 -62c69 0 125 56 125 125s-56 125 -125 125c-41 0 -78 -20 -101 -51l-94 38l43 363h327v-100h-238l-20 -166c26 10 54 16 83 16z" />
    <glyph glyph-name="six" unicode="6" horiz-adv-x="820" 
d="M235 225c0 37 9 72 25 103l197 399l90 -44l-116 -235c9 1 19 2 29 2c124 0 225 -101 225 -225s-101 -225 -225 -225s-225 101 -225 225zM460 350c-48 0 -90 -28 -112 -70c-8 -16 -13 -35 -13 -55c0 -69 56 -125 125 -125s125 56 125 125s-56 125 -125 125z" />
    <glyph glyph-name="seven" unicode="7" horiz-adv-x="848" 
d="M245 700h475l-174 -400h61v-100h-105l-91 -208l-91 40l73 168h-61v100h105l130 300h-322v100z" />
    <glyph glyph-name="eight" unicode="8" horiz-adv-x="800" 
d="M580 408c58 -40 95 -107 95 -183c0 -124 -101 -225 -225 -225s-225 101 -225 225c0 76 37 143 94 183c-27 31 -44 72 -44 117c0 97 78 175 175 175s175 -78 175 -175c0 -45 -17 -86 -45 -117zM375 525c0 -41 33 -75 75 -75c41 0 75 34 75 75s-34 75 -75 75
c-42 0 -75 -34 -75 -75zM450 100c69 0 125 56 125 125s-56 125 -125 125s-125 -56 -125 -125s56 -125 125 -125z" />
    <glyph glyph-name="nine" unicode="9" horiz-adv-x="780" 
d="M665 475c0 -37 -9 -72 -25 -103l-197 -399l-90 44l116 235c-10 -1 -19 -2 -29 -2c-124 0 -225 101 -225 225s101 225 225 225s225 -101 225 -225zM440 350c48 0 90 27 111 68l1 2c8 16 13 35 13 55c0 69 -56 125 -125 125s-125 -56 -125 -125s56 -125 125 -125z" />
    <glyph glyph-name="a" unicode="a" horiz-adv-x="1085" 
d="M869 0l-69 125h-416l-68 -125h-114l390 714l391 -714h-114zM439 225h307l-154 281z" />
    <glyph glyph-name="b" unicode="b" horiz-adv-x="1030" 
d="M798 371c58 -35 97 -98 97 -171c0 -111 -90 -200 -200 -200h-400v700h350c110 0 200 -90 200 -200c0 -49 -18 -94 -47 -129zM645 600h-250v-200h250c55 0 100 45 100 100s-45 100 -100 100zM395 100h300c55 0 100 45 100 100s-45 100 -100 100h-300v-200z" />
    <glyph glyph-name="c" unicode="c" horiz-adv-x="939" 
d="M555 100c82 0 154 39 200 100l79 -61c-64 -84 -165 -139 -279 -139c-193 0 -350 157 -350 350s157 350 350 350c114 0 215 -55 279 -139l-79 -61c-46 61 -118 100 -200 100c-138 0 -250 -112 -250 -250s112 -250 250 -250z" />
    <glyph glyph-name="d" unicode="d" horiz-adv-x="1000" 
d="M545 0h-250v700h250c193 0 350 -157 350 -350s-157 -350 -350 -350zM395 100h150c138 0 250 112 250 250s-112 250 -250 250h-150v-500zM295 725h1l-1 -1v1z" />
    <glyph glyph-name="e" unicode="e" horiz-adv-x="980" 
d="M795 600h-400v-275h300v-100h-300v-125h400v-100h-500v700h500v-100z" />
    <glyph glyph-name="f" unicode="f" horiz-adv-x="930" 
d="M795 600h-400v-275h300v-100h-300v-225h-100v700h500v-100z" />
    <glyph glyph-name="g" unicode="g" horiz-adv-x="989" 
d="M740 171v79h-175v100h275v-217c-64 -81 -163 -133 -275 -133c-193 0 -350 157 -350 350s157 350 350 350c114 0 215 -55 279 -139l-79 -61c-46 61 -118 100 -200 100c-138 0 -250 -112 -250 -250s112 -250 250 -250c68 0 130 27 175 71z" />
    <glyph glyph-name="h" unicode="h" horiz-adv-x="1090" 
d="M795 700h100v-700h-100v225h-400v-225h-100v700h100v-375h400v375z" />
    <glyph glyph-name="i" unicode="i" 
d="M395 0h-100v700h100v-700z" />
    <glyph glyph-name="j" unicode="j" horiz-adv-x="848" 
d="M563 250v450h100v-450c0 -138 -112 -250 -250 -250c-81 0 -152 38 -198 98l79 60c27 -35 71 -58 119 -58c83 0 150 67 150 150z" />
    <glyph glyph-name="k" unicode="k" horiz-adv-x="995" 
d="M845 0h-118l-220 351l-112 -122v-229h-100v700h100v-324l297 324h136l-250 -273z" />
    <glyph glyph-name="l" unicode="l" horiz-adv-x="920" 
d="M395 700v-600h400v-100h-500v700h100z" />
    <glyph glyph-name="m" unicode="m" horiz-adv-x="1134" 
d="M857 0l-36 468l-203 -220l-204 220l-36 -468h-100l54 700h4l282 -304l281 304h5l54 -700h-101z" />
    <glyph glyph-name="n" unicode="n" horiz-adv-x="1090" 
d="M795 700h100v-700h-6l-494 472v-472h-100v700h5l495 -472v472z" />
    <glyph glyph-name="o" unicode="o" horiz-adv-x="990" 
d="M895 350c0 -193 -157 -350 -350 -350s-350 157 -350 350s157 350 350 350s350 -157 350 -350zM545 600c-138 0 -250 -112 -250 -250s112 -250 250 -250s250 112 250 250s-112 250 -250 250z" />
    <glyph glyph-name="p" unicode="p" horiz-adv-x="900" 
d="M295 700h250c138 0 250 -112 250 -250s-112 -250 -250 -250h-150v-200h-100v700zM395 300h150c83 0 150 67 150 150s-67 150 -150 150h-150v-300z" />
    <glyph glyph-name="q" unicode="q" horiz-adv-x="1040" 
d="M905 350c0 -101 -43 -192 -111 -256l62 -94h-120l-24 37c-47 -24 -101 -37 -157 -37c-193 0 -350 157 -350 350s157 350 350 350s350 -157 350 -350zM555 100c36 0 70 8 101 21l-60 93h119l23 -34c41 44 67 104 67 170c0 138 -112 250 -250 250s-250 -112 -250 -250
s112 -250 250 -250z" />
    <glyph glyph-name="r" unicode="r" horiz-adv-x="963" 
d="M654 225l148 -225h-120l-131 200h-6h-150v-200h-100v700h250c138 0 250 -112 250 -250c0 -99 -57 -184 -141 -225zM395 600v-300h150c83 0 150 67 150 150s-67 150 -150 150h-150z" />
    <glyph glyph-name="s" unicode="s" horiz-adv-x="780" 
d="M445 600c-55 0 -100 -45 -100 -100s45 -100 100 -100c110 0 200 -90 200 -200c0 -111 -90 -200 -200 -200c-87 0 -161 56 -189 133l95 34c13 -39 50 -67 94 -67c55 0 100 45 100 100s-45 100 -100 100c-111 0 -200 89 -200 200c0 110 89 200 200 200
c87 0 161 -56 189 -133l-95 -34c-13 39 -51 67 -94 67z" />
    <glyph glyph-name="t" unicode="t" horiz-adv-x="950" 
d="M225 700h600v-100h-250v-600h-100v600h-250v100z" />
    <glyph glyph-name="u" unicode="u" horiz-adv-x="1050" 
d="M875 300c0 -166 -134 -300 -300 -300s-300 134 -300 300v400h100v-400c0 -111 89 -200 200 -200c110 0 200 89 200 200v400h100v-400z" />
    <glyph glyph-name="v" unicode="v" horiz-adv-x="985" 
d="M819 700h114l-383 -700h-15l-383 700h114l277 -506z" />
    <glyph glyph-name="w" unicode="w" horiz-adv-x="1133" 
d="M617 420l-161 -420h-11l-268 700h107l166 -435l167 435l166 -435l167 435h107l-268 -700h-11z" />
    <glyph glyph-name="x" unicode="x" horiz-adv-x="940" 
d="M579 360l226 -360h-118l-167 266l-167 -266h-118l226 360l-214 340h119l154 -246l154 246h118z" />
    <glyph glyph-name="y" unicode="y" horiz-adv-x="893" 
d="M710 700h118l-282 -449v-251h-100v251l-281 449h118l213 -340z" />
    <glyph glyph-name="z" unicode="z" horiz-adv-x="864" 
d="M247 700h485l-331 -600h331v-100h-500l331 600h-316v100z" />
    <glyph glyph-name="exclam" unicode="!" 
d="M395 198h-100v502h100v-502zM395 0h-100v100h100v-100z" />
    <glyph glyph-name="exclamdown" unicode="&#xa1;" 
d="M295 502h100v-502h-100v502zM295 700h100v-100h-100v100z" />
    <glyph glyph-name="question" unicode="?" horiz-adv-x="703" 
d="M445 0h-100v100h100v-100zM395 700c118 0 213 -95 213 -212c0 -100 -69 -184 -163 -207v-81h-100v175h50c63 0 113 51 113 113s-50 112 -113 112c-45 0 -85 -27 -102 -66l-92 40c33 75 108 126 194 126z" />
    <glyph glyph-name="questiondown" unicode="&#xbf;" horiz-adv-x="703" 
d="M357 700h100v-100h-100v100zM407 -1c-117 0 -212 96 -212 213c0 100 69 184 162 207v81h100v-176h-50c-62 0 -112 -50 -112 -112s50 -113 112 -113c46 0 86 28 103 67l92 -40c-33 -75 -108 -127 -195 -127z" />
    <glyph glyph-name="parenleft" unicode="(" horiz-adv-x="548" 
d="M413 675c-55 -96 -87 -206 -87 -325s32 -229 87 -325l-87 -50c-63 110 -100 239 -100 375s37 265 100 375z" />
    <glyph glyph-name="parenright" unicode=")" horiz-adv-x="547" 
d="M234 675l87 50c64 -110 100 -239 100 -375s-36 -265 -100 -375l-87 50c56 96 87 206 87 325s-31 229 -87 325z" />
    <glyph glyph-name="bracketleft" unicode="[" horiz-adv-x="595" 
d="M450 800v-100h-75v-700h75v-100h-175v900h175z" />
    <glyph glyph-name="bracketright" unicode="]" horiz-adv-x="595" 
d="M245 700v100h175v-900h-175v100h75v700h-75z" />
    <glyph glyph-name="braceleft" unicode="{" horiz-adv-x="646" 
d="M324 426v174c0 90 60 166 142 191l29 -95c-41 -13 -71 -51 -71 -96v-174c0 -27 -5 -53 -15 -76c10 -24 15 -49 15 -76v-174c0 -45 30 -83 71 -96l-29 -95c-82 25 -142 101 -142 191v174c0 30 -13 58 -35 76c22 18 35 46 35 76z" />
    <glyph glyph-name="braceright" unicode="}" horiz-adv-x="645" 
d="M421 600v-174c0 -30 14 -58 36 -76c-22 -18 -36 -46 -36 -76v-174c0 -90 -59 -166 -141 -191l-29 95c41 13 70 51 70 96v174c0 27 6 52 15 76c-9 23 -15 49 -15 76v174c0 45 -29 83 -70 96l29 95c82 -25 141 -101 141 -191z" />
    <glyph glyph-name="section" unicode="&#xa7;" horiz-adv-x="840" 
d="M695 350c0 -56 -20 -107 -54 -146c18 -31 29 -66 29 -104c0 -111 -90 -200 -200 -200c-87 0 -161 56 -189 133l95 34c13 -39 50 -67 94 -67c55 0 100 45 100 100c0 16 -4 30 -10 44c-28 -12 -58 -19 -90 -19c-124 0 -225 101 -225 225c0 56 20 107 54 146
c-18 30 -29 66 -29 104c0 110 89 200 200 200c87 0 161 -56 189 -133l-95 -34c-13 39 -51 67 -94 67c-55 0 -100 -45 -100 -100c0 -16 4 -31 10 -44c28 12 58 19 90 19c124 0 225 -101 225 -225zM345 350c0 -69 56 -125 125 -125s125 56 125 125s-56 125 -125 125
s-125 -56 -125 -125z" />
    <glyph glyph-name="at" unicode="@" horiz-adv-x="1030" 
d="M565 700c193 0 350 -157 350 -350c0 -111 -90 -200 -200 -200c-51 0 -98 19 -133 51c-6 -1 -11 -1 -17 -1c-83 0 -150 67 -150 150s67 150 150 150s150 -67 150 -150c0 -36 -13 -69 -33 -94c10 -4 21 -6 33 -6c55 0 100 45 100 100c0 138 -112 250 -250 250
s-250 -112 -250 -250s112 -250 250 -250c36 0 70 8 102 21l40 -91c-43 -19 -91 -30 -142 -30c-193 0 -350 157 -350 350s157 350 350 350zM515 350c0 -28 22 -50 50 -50s50 22 50 50s-22 50 -50 50s-50 -22 -50 -50z" />
    <glyph glyph-name="asterisk" unicode="*" horiz-adv-x="1004" 
d="M830 568l50 -86l-228 -132l228 -132l-50 -86l-228 131v-263h-100v263l-228 -131l-50 86l228 132l-228 132l50 86l228 -131v263h100v-263z" />
    <glyph glyph-name="ampersand" unicode="&#x26;" horiz-adv-x="960" 
d="M593 196l-142 142l-67 -67c-39 -39 -39 -103 0 -142s103 -39 142 0zM663 126l-67 -67c-78 -79 -204 -79 -283 0c-78 78 -78 204 0 282l68 68l-36 35c-58 58 -58 153 0 212c59 59 154 59 212 0c59 -59 59 -154 0 -212l-35 -35l141 -142l91 91l71 -71l-91 -91l91 -90
l-71 -71zM451 479l36 36c19 19 19 51 0 70c-20 20 -52 20 -71 0c-20 -19 -20 -51 0 -70z" />
    <glyph glyph-name="percent" unicode="%" horiz-adv-x="1031" 
d="M495 575c0 -69 -56 -125 -125 -125s-125 56 -125 125s56 125 125 125s125 -56 125 -125zM370 650c-41 0 -75 -34 -75 -75s34 -75 75 -75s75 34 75 75s-34 75 -75 75zM329 -14l-60 45l517 684l60 -46zM886 125c0 -69 -56 -125 -125 -125s-125 56 -125 125s56 125 125 125
s125 -56 125 -125zM761 200c-42 0 -75 -34 -75 -75s33 -75 75 -75c41 0 75 34 75 75s-34 75 -75 75z" />
    <glyph glyph-name="plusminus" unicode="&#xb1;" horiz-adv-x="850" 
d="M725 50h-500v100h500v-100zM525 525h200v-100h-200v-200h-100v200h-200v100h200v200h100v-200z" />
    <glyph glyph-name="plus" unicode="+" horiz-adv-x="850" 
d="M525 400h200v-100h-200v-200h-100v200h-200v100h200v200h100v-200z" />
    <glyph glyph-name="guillemotleft" unicode="&#xab;" horiz-adv-x="738" 
d="M334 555l82 -58l-103 -147l103 -147l-82 -58l-143 205zM561 555l82 -58l-103 -147l103 -147l-82 -58l-143 205z" />
    <glyph glyph-name="guillemotright" unicode="&#xbb;" horiz-adv-x="738" 
d="M196 497l82 58l143 -205l-143 -205l-82 58l103 147zM423 497l82 58l143 -205l-143 -205l-82 58l103 147z" />
    <glyph glyph-name="guilsinglleft" unicode="&#x2039;" horiz-adv-x="511" 
d="M334 555l82 -58l-103 -147l103 -147l-82 -58l-143 205z" />
    <glyph glyph-name="guilsinglright" unicode="&#x203a;" horiz-adv-x="511" 
d="M195 497l82 58l143 -205l-143 -205l-82 58l103 147z" />
    <glyph glyph-name="equal" unicode="=" horiz-adv-x="850" 
d="M725 400h-500v100h500v-100zM725 200h-500v100h500v-100z" />
    <glyph glyph-name="bar" unicode="|" 
d="M395 -100h-100v900h100v-900z" />
    <glyph glyph-name="less" unicode="&#x3c;" horiz-adv-x="822" 
d="M245 400l359 176l44 -90l-278 -136l278 -136l-44 -90l-359 176v100z" />
    <glyph glyph-name="greater" unicode="&#x3e;" horiz-adv-x="822" 
d="M318 576l359 -176v-100l-359 -176l-44 90l278 136l-278 136z" />
    <glyph glyph-name="sterling" unicode="&#xa3;" horiz-adv-x="910" 
d="M456 100h309v-100h-500v100h50c28 0 50 22 50 50v50h-100v100h100v225c0 97 78 175 175 175c76 0 141 -49 165 -117l-94 -33c-11 29 -39 50 -71 50c-42 0 -75 -34 -75 -75v-225h100v-100h-100v-50c0 -18 -3 -34 -9 -50z" />
    <glyph glyph-name="Euro" unicode="&#x20ac;" horiz-adv-x="1039" 
d="M655 100c82 0 154 39 200 100l79 -61c-64 -84 -165 -139 -279 -139c-140 0 -260 82 -316 200h-127l25 100h71c-2 16 -3 33 -3 50s1 34 3 50h-78l25 100h84c56 118 176 200 316 200c114 0 215 -55 279 -139l-79 -61c-46 61 -118 100 -200 100s-154 -39 -200 -100h150
l-25 -100h-170c-3 -16 -5 -33 -5 -50s2 -34 5 -50h177l-25 -100h-107c46 -61 118 -100 200 -100z" />
    <glyph glyph-name="Agrave" unicode="&#xc0;" horiz-adv-x="1085" 
d="M717 837l-14 -48l-239 74l14 48zM869 0l-68 125h-416l-69 -125h-114l391 714l390 -714h-114zM439 225h307l-153 281z" />
    <glyph glyph-name="Aacute" unicode="&#xc1;" horiz-adv-x="1085" 
d="M479 789l-15 48l239 74l15 -48zM869 0l-68 125h-416l-69 -125h-114l391 714l390 -714h-114zM439 225h307l-153 281z" />
    <glyph glyph-name="Acircumflex" unicode="&#xc2;" horiz-adv-x="1085" 
d="M719 837l-14 -48l-113 35l-112 -35l-14 48l126 39zM869 0l-68 125h-417l-68 -125h-114l390 714l391 -714h-114zM439 225h307l-154 281z" />
    <glyph glyph-name="Atilde" unicode="&#xc3;" horiz-adv-x="1085" 
d="M695 806c-36 -11 -77 -9 -114 11c-24 13 -52 15 -76 7c-12 -4 -24 -10 -34 -18l-32 39c16 12 33 21 51 27c37 11 78 8 114 -11c25 -13 52 -15 77 -7c12 3 23 9 33 18l32 -39c-15 -12 -32 -22 -51 -27zM869 0l-68 125h-416l-69 -125h-114l391 714l390 -714h-114zM439 225
h307l-153 281z" />
    <glyph glyph-name="Adieresis" unicode="&#xc4;" horiz-adv-x="1085" 
d="M492 850c0 -28 -22 -50 -50 -50c-27 0 -50 22 -50 50c0 27 23 50 50 50c28 0 50 -23 50 -50zM792 850c0 -28 -22 -50 -50 -50c-27 0 -50 22 -50 50c0 27 23 50 50 50c28 0 50 -23 50 -50zM869 0l-69 125h-416l-68 -125h-114l390 714l391 -714h-114zM439 225h307l-154 281
z" />
    <glyph glyph-name="Aring" unicode="&#xc5;" horiz-adv-x="1085" 
d="M667 875c0 -42 -34 -75 -75 -75s-75 33 -75 75c0 41 34 75 75 75s75 -34 75 -75zM592 900c-14 0 -25 -11 -25 -25s11 -25 25 -25s25 11 25 25s-11 25 -25 25zM868 0l-68 125h-416l-68 -125h-114l390 714l390 -714h-114zM439 225h306l-153 281z" />
    <glyph glyph-name="AE" unicode="&#xc6;" horiz-adv-x="1348" 
d="M1163 600h-400v-275h300v-100h-300v-125h400v-100h-500v100h-292l-55 -100h-114l382 700h579v-100zM425 200h238v400h-19z" />
    <glyph glyph-name="comma" unicode="," horiz-adv-x="450" 
d="M325 0l-50 -100h-50v200h100v-100z" />
    <glyph glyph-name="semicolon" unicode=";" horiz-adv-x="450" 
d="M325 0l-50 -100h-50v200h100v-100zM325 400h-100v100h100v-100z" />
    <glyph glyph-name="currency" unicode="&#xa4;" horiz-adv-x="830" 
d="M637 248l58 -57l-71 -71l-58 58c-62 -37 -140 -37 -203 0l-57 -58l-71 71l57 57c-36 63 -36 141 0 204l-57 57l71 71l57 -58c63 37 141 37 203 0l58 58l71 -71l-58 -57c37 -63 37 -141 0 -204zM394 279c39 -39 102 -39 141 0c40 39 40 103 0 142c-39 39 -102 39 -141 0
s-39 -103 0 -142z" />
    <glyph glyph-name="dagger" unicode="&#x2020;" horiz-adv-x="750" 
d="M475 550h150v-100h-150v-450h-100v450h-150v100h150v150h100v-150z" />
    <glyph glyph-name="daggerdbl" unicode="&#x2021;" horiz-adv-x="750" 
d="M625 550v-100h-150v-200h150v-100h-150v-150h-100v150h-150v100h150v200h-150v100h150v150h100v-150h150z" />
    <glyph glyph-name="degree" unicode="&#xb0;" horiz-adv-x="490" 
d="M395 600c0 -55 -45 -100 -100 -100s-100 45 -100 100s45 100 100 100s100 -45 100 -100zM295 650c-28 0 -50 -22 -50 -50s22 -50 50 -50s50 22 50 50s-22 50 -50 50z" />
    <glyph glyph-name="divide" unicode="&#xf7;" horiz-adv-x="850" 
d="M550 550c0 -41 -34 -75 -75 -75s-75 34 -75 75s34 75 75 75s75 -34 75 -75zM725 300h-500v100h500v-100zM550 150c0 -41 -34 -75 -75 -75s-75 34 -75 75s34 75 75 75s75 -34 75 -75z" />
    <glyph glyph-name="hyphen" unicode="-" 
d="M495 300h-300v100h300v-100z" />
    <glyph glyph-name="endash" unicode="&#x2013;" horiz-adv-x="850" 
d="M725 300h-500v100h500v-100z" />
    <glyph glyph-name="emdash" unicode="&#x2014;" horiz-adv-x="1350" 
d="M1225 300h-1000v100h1000v-100z" />
    <glyph glyph-name="underscore" unicode="_" horiz-adv-x="700" 
d="M700 -175h-700v100h700v-100z" />
    <glyph glyph-name="dollar" unicode="$" horiz-adv-x="780" 
d="M645 200c0 -93 -64 -172 -150 -194v-85h-100v85c-65 17 -117 65 -139 127l95 34c13 -39 50 -67 94 -67c55 0 100 45 100 100s-45 100 -100 100c-111 0 -200 89 -200 200c0 93 64 171 150 194v80h100v-80c64 -17 116 -65 138 -127l-94 -34c-14 39 -51 67 -94 67
c-55 0 -100 -45 -100 -100s45 -100 100 -100c110 0 200 -90 200 -200z" />
    <glyph glyph-name="Egrave" unicode="&#xc8;" horiz-adv-x="980" 
d="M672 837l-15 -48l-239 74l15 48zM795 600h-400v-275h300v-100h-300v-125h400v-100h-500v700h500v-100z" />
    <glyph glyph-name="Eacute" unicode="&#xc9;" horiz-adv-x="980" 
d="M433 789l-15 48l239 74l15 -48zM795 600h-400v-275h300v-100h-300v-125h400v-100h-500v700h500v-100z" />
    <glyph glyph-name="Ecircumflex" unicode="&#xca;" horiz-adv-x="980" 
d="M672 837l-15 -48l-112 35l-112 -35l-15 48l127 39zM795 600h-400v-275h300v-100h-300v-125h400v-100h-500v700h500v-100z" />
    <glyph glyph-name="Edieresis" unicode="&#xcb;" horiz-adv-x="980" 
d="M445 850c0 -28 -22 -50 -50 -50c-27 0 -50 22 -50 50s23 50 50 50c28 0 50 -22 50 -50zM745 850c0 -28 -22 -50 -50 -50c-27 0 -50 22 -50 50s23 50 50 50c28 0 50 -22 50 -50zM795 600h-400v-275h300v-100h-300v-125h400v-100h-500v700h500v-100z" />
    <glyph glyph-name="Eth" unicode="&#xd0;" horiz-adv-x="1050" 
d="M345 700h250c193 0 350 -157 350 -350s-157 -350 -350 -350h-250v200h-100v100h100v400zM445 100h150c138 0 250 112 250 250s-112 250 -250 250h-150v-300h100v-100h-100v-100z" />
    <glyph glyph-name="florin" unicode="&#x192;" horiz-adv-x="774" 
d="M520 579l-18 -129h129l-14 -100h-129l-34 -245c-12 -82 -88 -139 -170 -128c-64 9 -114 58 -126 119l98 20c4 -20 20 -37 42 -40c27 -3 53 16 56 43l33 231h-99l14 100h99l20 143c11 82 87 140 169 128c65 -9 114 -58 126 -118l-98 -20c-4 20 -20 36 -42 39
c-27 4 -52 -15 -56 -43z" />
    <glyph glyph-name="germandbls" unicode="&#xdf;" horiz-adv-x="890" 
d="M636 217c39 -39 59 -90 59 -141v-76h-100v76c0 25 -10 51 -29 70c-78 79 -78 205 0 283c18 18 29 43 29 71c0 55 -45 100 -100 100s-100 -45 -100 -100v-500h-100v500c0 110 89 200 200 200c110 0 200 -90 200 -200c0 -55 -22 -105 -59 -141c-39 -40 -39 -103 0 -142z
" />
    <glyph glyph-name="Igrave" unicode="&#xcc;" 
d="M457 789l-239 74l15 48l239 -74zM395 0h-100v700h100v-700z" />
    <glyph glyph-name="Iacute" unicode="&#xcd;" 
d="M472 863l-239 -74l-15 48l239 74zM395 0h-100v700h100v-700z" />
    <glyph glyph-name="Icircumflex" unicode="&#xce;" 
d="M345 876l127 -39l-15 -48l-112 35l-112 -35l-15 48zM395 0h-100v700h100v-700z" />
    <glyph glyph-name="Idieresis" unicode="&#xcf;" 
d="M245 850c0 -28 -22 -50 -50 -50s-50 22 -50 50s22 50 50 50s50 -22 50 -50zM545 850c0 -28 -22 -50 -50 -50s-50 22 -50 50s22 50 50 50s50 -22 50 -50zM395 0h-100v700h100v-700z" />
    <glyph glyph-name="multiply" unicode="&#xd7;" horiz-adv-x="817" 
d="M470 421l141 141l71 -71l-141 -141l141 -141l-71 -71l-141 141l-141 -141l-71 71l141 141l-141 141l71 71z" />
    <glyph glyph-name="Ntilde" unicode="&#xd1;" horiz-adv-x="1090" 
d="M698 806c-37 -11 -78 -8 -115 11c-24 13 -51 15 -76 7c-12 -3 -24 -9 -34 -18l-31 39c15 12 32 22 50 27c37 11 78 9 115 -11c24 -13 51 -15 76 -7c12 4 24 10 34 18l31 -39c-15 -12 -32 -21 -50 -27zM795 700h100v-700h-6l-494 472v-472h-100v700h5l495 -472v472z" />
    <glyph glyph-name="Ograve" unicode="&#xd2;" horiz-adv-x="990" 
d="M657 789l-239 74l15 48l239 -74zM895 350c0 -193 -157 -350 -350 -350s-350 157 -350 350s157 350 350 350s350 -157 350 -350zM545 600c-138 0 -250 -112 -250 -250s112 -250 250 -250s250 112 250 250s-112 250 -250 250z" />
    <glyph glyph-name="Oacute" unicode="&#xd3;" horiz-adv-x="990" 
d="M672 863l-239 -74l-15 48l239 74zM895 350c0 -193 -157 -350 -350 -350s-350 157 -350 350s157 350 350 350s350 -157 350 -350zM545 600c-138 0 -250 -112 -250 -250s112 -250 250 -250s250 112 250 250s-112 250 -250 250z" />
    <glyph glyph-name="Ocircumflex" unicode="&#xd4;" horiz-adv-x="990" 
d="M545 876l127 -39l-15 -48l-112 35l-112 -35l-15 48zM895 350c0 -193 -157 -350 -350 -350s-350 157 -350 350s157 350 350 350s350 -157 350 -350zM545 600c-138 0 -250 -112 -250 -250s112 -250 250 -250s250 112 250 250s-112 250 -250 250z" />
    <glyph glyph-name="Otilde" unicode="&#xd5;" horiz-adv-x="990" 
d="M647 806c-36 -11 -77 -9 -114 11c-24 13 -51 15 -76 7c-12 -3 -24 -10 -34 -18l-31 39c15 12 32 21 50 27c37 11 78 9 115 -11c24 -13 51 -15 76 -7c12 3 24 10 34 18l31 -39c-15 -12 -32 -21 -51 -27zM895 350c0 -193 -157 -350 -350 -350s-350 157 -350 350
s157 350 350 350s350 -157 350 -350zM545 600c-138 0 -250 -112 -250 -250s112 -250 250 -250s250 112 250 250s-112 250 -250 250z" />
    <glyph glyph-name="Odieresis" unicode="&#xd6;" horiz-adv-x="990" 
d="M445 850c0 -28 -22 -50 -50 -50s-50 22 -50 50s22 50 50 50s50 -22 50 -50zM745 850c0 -28 -22 -50 -50 -50s-50 22 -50 50s22 50 50 50s50 -22 50 -50zM895 350c0 -193 -157 -350 -350 -350s-350 157 -350 350s157 350 350 350s350 -157 350 -350zM545 600
c-138 0 -250 -112 -250 -250s112 -250 250 -250s250 112 250 250s-112 250 -250 250z" />
    <glyph glyph-name="OE" unicode="&#x152;" horiz-adv-x="1305" 
d="M1120 600h-400v-275h300v-100h-300v-125h400v-100h-575c-193 0 -350 157 -350 350s157 350 350 350h575v-100zM545 100h75v500h-75c-138 0 -250 -112 -250 -250s112 -250 250 -250z" />
    <glyph glyph-name="period" unicode="." horiz-adv-x="450" 
d="M325 0h-100v100h100v-100z" />
    <glyph glyph-name="colon" unicode=":" horiz-adv-x="450" 
d="M325 0h-100v100h100v-100zM325 400h-100v100h100v-100z" />
    <glyph glyph-name="Scaron" unicode="&#x160;" horiz-adv-x="780" 
d="M572 823l-127 -39l-127 39l15 48l112 -34l112 34zM445 600c-55 0 -100 -45 -100 -100s45 -100 100 -100c110 0 200 -90 200 -200c0 -111 -90 -200 -200 -200c-87 0 -161 56 -189 133l95 34c13 -39 50 -67 94 -67c55 0 100 45 100 100s-45 100 -100 100
c-111 0 -200 89 -200 200c0 110 89 200 200 200c87 0 161 -56 189 -133l-95 -34c-13 39 -51 67 -94 67z" />
    <glyph glyph-name="Thorn" unicode="&#xde;" horiz-adv-x="930" 
d="M395 600h150c138 0 250 -112 250 -250s-112 -250 -250 -250h-150v-100h-100v700h100v-100zM395 200h150c83 0 150 67 150 150s-67 150 -150 150h-150v-300z" />
    <glyph glyph-name="Ugrave" unicode="&#xd9;" horiz-adv-x="1050" 
d="M687 789l-239 74l15 48l239 -74zM875 300c0 -166 -134 -300 -300 -300s-300 134 -300 300v400h100v-400c0 -111 89 -200 200 -200c110 0 200 89 200 200v400h100v-400z" />
    <glyph glyph-name="Uacute" unicode="&#xda;" horiz-adv-x="1050" 
d="M702 863l-239 -74l-15 48l239 74zM875 300c0 -166 -134 -300 -300 -300s-300 134 -300 300v400h100v-400c0 -111 89 -200 200 -200c110 0 200 89 200 200v400h100v-400z" />
    <glyph glyph-name="Ucircumflex" unicode="&#xdb;" horiz-adv-x="1050" 
d="M575 876l127 -39l-15 -48l-112 35l-112 -35l-15 48zM875 300c0 -166 -134 -300 -300 -300s-300 134 -300 300v400h100v-400c0 -111 89 -200 200 -200c110 0 200 89 200 200v400h100v-400z" />
    <glyph glyph-name="Udieresis" unicode="&#xdc;" horiz-adv-x="1050" 
d="M475 850c0 -28 -22 -50 -50 -50s-50 22 -50 50s22 50 50 50s50 -22 50 -50zM775 850c0 -28 -22 -50 -50 -50s-50 22 -50 50s22 50 50 50s50 -22 50 -50zM875 300c0 -166 -134 -300 -300 -300s-300 134 -300 300v400h100v-400c0 -111 89 -200 200 -200
c110 0 200 89 200 200v400h100v-400z" />
    <glyph glyph-name="Yacute" unicode="&#xdd;" horiz-adv-x="893" 
d="M623 863l-239 -74l-15 48l239 74zM710 700h118l-282 -449v-251h-100v251l-281 449h118l213 -340z" />
    <glyph glyph-name="Ydieresis" unicode="&#x178;" horiz-adv-x="893" 
d="M396 850c0 -28 -22 -50 -50 -50c-27 0 -50 22 -50 50s23 50 50 50c28 0 50 -22 50 -50zM696 850c0 -28 -22 -50 -50 -50c-27 0 -50 22 -50 50s23 50 50 50c28 0 50 -22 50 -50zM710 700h118l-282 -449v-251h-100v251l-281 449h118l213 -340z" />
    <glyph glyph-name="yen" unicode="&#xa5;" horiz-adv-x="993" 
d="M760 700h118l-188 -300h81v-100h-144l-31 -49v-51h175v-100h-175v-100h-100v100h-175v100h175v51l-30 49h-145v100h82l-188 300h118l213 -340z" />
    <glyph glyph-name="Zcaron" unicode="&#x17d;" horiz-adv-x="864" 
d="M617 823l-127 -39l-127 39l15 48l112 -34l112 34zM247 700h485l-331 -600h331v-100h-500l331 600h-316v100z" />
    <glyph glyph-name="agrave" unicode="&#xe0;" horiz-adv-x="1085" 
d="M717 837l-14 -48l-239 74l14 48zM869 0l-68 125h-416l-69 -125h-114l391 714l390 -714h-114zM439 225h307l-153 281z" />
    <glyph glyph-name="aacute" unicode="&#xe1;" horiz-adv-x="1085" 
d="M479 789l-15 48l239 74l15 -48zM869 0l-68 125h-416l-69 -125h-114l391 714l390 -714h-114zM439 225h307l-153 281z" />
    <glyph glyph-name="acircumflex" unicode="&#xe2;" horiz-adv-x="1085" 
d="M719 837l-14 -48l-113 35l-112 -35l-14 48l126 39zM869 0l-68 125h-417l-68 -125h-114l390 714l391 -714h-114zM439 225h307l-154 281z" />
    <glyph glyph-name="atilde" unicode="&#xe3;" horiz-adv-x="1085" 
d="M695 806c-36 -11 -77 -9 -114 11c-24 13 -52 15 -76 7c-12 -4 -24 -10 -34 -18l-32 39c16 12 33 21 51 27c37 11 78 8 114 -11c25 -13 52 -15 77 -7c12 3 23 9 33 18l32 -39c-15 -12 -32 -22 -51 -27zM869 0l-68 125h-416l-69 -125h-114l391 714l390 -714h-114zM439 225
h307l-153 281z" />
    <glyph glyph-name="adieresis" unicode="&#xe4;" horiz-adv-x="1085" 
d="M492 850c0 -28 -22 -50 -50 -50c-27 0 -50 22 -50 50c0 27 23 50 50 50c28 0 50 -23 50 -50zM792 850c0 -28 -22 -50 -50 -50c-27 0 -50 22 -50 50c0 27 23 50 50 50c28 0 50 -23 50 -50zM869 0l-69 125h-416l-68 -125h-114l390 714l391 -714h-114zM439 225h307l-154 281
z" />
    <glyph glyph-name="aring" unicode="&#xe5;" horiz-adv-x="1085" 
d="M667 875c0 -42 -34 -75 -75 -75s-75 33 -75 75c0 41 34 75 75 75s75 -34 75 -75zM592 900c-14 0 -25 -11 -25 -25s11 -25 25 -25s25 11 25 25s-11 25 -25 25zM868 0l-68 125h-416l-68 -125h-114l390 714l390 -714h-114zM439 225h306l-153 281z" />
    <glyph glyph-name="ae" unicode="&#xe6;" horiz-adv-x="1348" 
d="M1163 600h-400v-275h300v-100h-300v-125h400v-100h-500v100h-292l-55 -100h-114l382 700h579v-100zM425 200h238v400h-19z" />
    <glyph glyph-name="egrave" unicode="&#xe8;" horiz-adv-x="980" 
d="M672 837l-15 -48l-239 74l15 48zM795 600h-400v-275h300v-100h-300v-125h400v-100h-500v700h500v-100z" />
    <glyph glyph-name="eacute" unicode="&#xe9;" horiz-adv-x="980" 
d="M433 789l-15 48l239 74l15 -48zM795 600h-400v-275h300v-100h-300v-125h400v-100h-500v700h500v-100z" />
    <glyph glyph-name="ecircumflex" unicode="&#xea;" horiz-adv-x="980" 
d="M672 837l-15 -48l-112 35l-112 -35l-15 48l127 39zM795 600h-400v-275h300v-100h-300v-125h400v-100h-500v700h500v-100z" />
    <glyph glyph-name="edieresis" unicode="&#xeb;" horiz-adv-x="980" 
d="M445 850c0 -28 -22 -50 -50 -50c-27 0 -50 22 -50 50s23 50 50 50c28 0 50 -22 50 -50zM745 850c0 -28 -22 -50 -50 -50c-27 0 -50 22 -50 50s23 50 50 50c28 0 50 -22 50 -50zM795 600h-400v-275h300v-100h-300v-125h400v-100h-500v700h500v-100z" />
    <glyph glyph-name="igrave" unicode="&#xec;" horiz-adv-x="565" 
d="M457 789l-239 74l15 48l239 -74zM395 0h-100v700h100v-700z" />
    <glyph glyph-name="iacute" unicode="&#xed;" 
d="M472 863l-239 -74l-15 48l239 74zM395 0h-100v700h100v-700z" />
    <glyph glyph-name="icircumflex" unicode="&#xee;" 
d="M345 876l127 -39l-15 -48l-112 35l-112 -35l-15 48zM395 0h-100v700h100v-700z" />
    <glyph glyph-name="idieresis" unicode="&#xef;" 
d="M245 850c0 -28 -22 -50 -50 -50s-50 22 -50 50s22 50 50 50s50 -22 50 -50zM545 850c0 -28 -22 -50 -50 -50s-50 22 -50 50s22 50 50 50s50 -22 50 -50zM395 0h-100v700h100v-700z" />
    <glyph glyph-name="eth" unicode="&#xf0;" horiz-adv-x="1050" 
d="M345 700h250c193 0 350 -157 350 -350s-157 -350 -350 -350h-250v200h-100v100h100v400zM445 100h150c138 0 250 112 250 250s-112 250 -250 250h-150v-300h100v-100h-100v-100z" />
    <glyph glyph-name="ntilde" unicode="&#xf1;" horiz-adv-x="1090" 
d="M698 806c-37 -11 -78 -8 -115 11c-24 13 -51 15 -76 7c-12 -3 -24 -9 -34 -18l-31 39c15 12 32 22 50 27c37 11 78 9 115 -11c24 -13 51 -15 76 -7c12 4 24 10 34 18l31 -39c-15 -12 -32 -21 -50 -27zM795 700h100v-700h-6l-494 472v-472h-100v700h5l495 -472v472z" />
    <glyph glyph-name="ograve" unicode="&#xf2;" horiz-adv-x="990" 
d="M657 789l-239 74l15 48l239 -74zM895 350c0 -193 -157 -350 -350 -350s-350 157 -350 350s157 350 350 350s350 -157 350 -350zM545 600c-138 0 -250 -112 -250 -250s112 -250 250 -250s250 112 250 250s-112 250 -250 250z" />
    <glyph glyph-name="oacute" unicode="&#xf3;" horiz-adv-x="990" 
d="M672 863l-239 -74l-15 48l239 74zM895 350c0 -193 -157 -350 -350 -350s-350 157 -350 350s157 350 350 350s350 -157 350 -350zM545 600c-138 0 -250 -112 -250 -250s112 -250 250 -250s250 112 250 250s-112 250 -250 250z" />
    <glyph glyph-name="ocircumflex" unicode="&#xf4;" horiz-adv-x="990" 
d="M545 876l127 -39l-15 -48l-112 35l-112 -35l-15 48zM895 350c0 -193 -157 -350 -350 -350s-350 157 -350 350s157 350 350 350s350 -157 350 -350zM545 600c-138 0 -250 -112 -250 -250s112 -250 250 -250s250 112 250 250s-112 250 -250 250z" />
    <glyph glyph-name="otilde" unicode="&#xf5;" horiz-adv-x="990" 
d="M647 806c-36 -11 -77 -9 -114 11c-24 13 -51 15 -76 7c-12 -3 -24 -10 -34 -18l-31 39c15 12 32 21 50 27c37 11 78 9 115 -11c24 -13 51 -15 76 -7c12 3 24 10 34 18l31 -39c-15 -12 -32 -21 -51 -27zM895 350c0 -193 -157 -350 -350 -350s-350 157 -350 350
s157 350 350 350s350 -157 350 -350zM545 600c-138 0 -250 -112 -250 -250s112 -250 250 -250s250 112 250 250s-112 250 -250 250z" />
    <glyph glyph-name="odieresis" unicode="&#xf6;" horiz-adv-x="990" 
d="M445 850c0 -28 -22 -50 -50 -50s-50 22 -50 50s22 50 50 50s50 -22 50 -50zM745 850c0 -28 -22 -50 -50 -50s-50 22 -50 50s22 50 50 50s50 -22 50 -50zM895 350c0 -193 -157 -350 -350 -350s-350 157 -350 350s157 350 350 350s350 -157 350 -350zM545 600
c-138 0 -250 -112 -250 -250s112 -250 250 -250s250 112 250 250s-112 250 -250 250z" />
    <glyph glyph-name="ugrave" unicode="&#xf9;" horiz-adv-x="1050" 
d="M687 789l-239 74l15 48l239 -74zM875 300c0 -166 -134 -300 -300 -300s-300 134 -300 300v400h100v-400c0 -111 89 -200 200 -200c110 0 200 89 200 200v400h100v-400z" />
    <glyph glyph-name="uacute" unicode="&#xfa;" horiz-adv-x="1050" 
d="M702 863l-239 -74l-15 48l239 74zM875 300c0 -166 -134 -300 -300 -300s-300 134 -300 300v400h100v-400c0 -111 89 -200 200 -200c110 0 200 89 200 200v400h100v-400z" />
    <glyph glyph-name="ucircumflex" unicode="&#xfb;" horiz-adv-x="1050" 
d="M575 876l127 -39l-15 -48l-112 35l-112 -35l-15 48zM875 300c0 -166 -134 -300 -300 -300s-300 134 -300 300v400h100v-400c0 -111 89 -200 200 -200c110 0 200 89 200 200v400h100v-400z" />
    <glyph glyph-name="udieresis" unicode="&#xfc;" horiz-adv-x="1050" 
d="M475 850c0 -28 -22 -50 -50 -50s-50 22 -50 50s22 50 50 50s50 -22 50 -50zM775 850c0 -28 -22 -50 -50 -50s-50 22 -50 50s22 50 50 50s50 -22 50 -50zM875 300c0 -166 -134 -300 -300 -300s-300 134 -300 300v400h100v-400c0 -111 89 -200 200 -200
c110 0 200 89 200 200v400h100v-400z" />
    <glyph glyph-name="yacute" unicode="&#xfd;" horiz-adv-x="893" 
d="M623 863l-239 -74l-15 48l239 74zM710 700h118l-282 -449v-251h-100v251l-281 449h118l213 -340z" />
    <glyph glyph-name="thorn" unicode="&#xfe;" horiz-adv-x="930" 
d="M395 600h150c138 0 250 -112 250 -250s-112 -250 -250 -250h-150v-100h-100v700h100v-100zM395 200h150c83 0 150 67 150 150s-67 150 -150 150h-150v-300z" />
    <glyph glyph-name="ydieresis" unicode="&#xff;" horiz-adv-x="893" 
d="M396 850c0 -28 -22 -50 -50 -50c-27 0 -50 22 -50 50s23 50 50 50c28 0 50 -22 50 -50zM696 850c0 -28 -22 -50 -50 -50c-27 0 -50 22 -50 50s23 50 50 50c28 0 50 -22 50 -50zM710 700h118l-282 -449v-251h-100v251l-281 449h118l213 -340z" />
    <glyph glyph-name="zcaron" unicode="&#x17e;" horiz-adv-x="864" 
d="M617 823l-127 -39l-127 39l15 48l112 -34l112 34zM247 700h485l-331 -600h331v-100h-500l331 600h-316v100z" />
    <glyph glyph-name="space" unicode=" " horiz-adv-x="550" 
 />
    <glyph glyph-name="brokenbar" unicode="&#xa6;" 
d="M395 450h-100v350h100v-350zM395 -100h-100v350h100v-350z" />
    <glyph glyph-name="dieresis" unicode="&#xa8;" horiz-adv-x="750" 
d="M325 850c0 -28 -22 -50 -50 -50s-50 22 -50 50s22 50 50 50s50 -22 50 -50zM625 850c0 -28 -22 -50 -50 -50s-50 22 -50 50s22 50 50 50s50 -22 50 -50z" />
    <glyph glyph-name="ellipsis" unicode="&#x2026;" horiz-adv-x="1000" 
d="M325 0h-100v100h100v-100zM600 0h-100v100h100v-100zM875 0h-100v100h100v-100z" />
    <glyph glyph-name="tilde" unicode="&#x2dc;" horiz-adv-x="676" 
d="M490 806c-36 -11 -77 -9 -114 11c-24 13 -51 15 -76 7c-12 -3 -24 -10 -34 -18l-31 39c15 12 32 21 50 27c37 11 78 9 115 -11c24 -13 51 -15 76 -7c12 3 24 10 34 18l31 -39c-15 -12 -32 -21 -51 -27z" />
    <glyph glyph-name="asciitilde" unicode="~" horiz-adv-x="677" 
d="M491 317c-37 -11 -78 -9 -114 11c-25 13 -52 15 -77 7c-12 -4 -23 -10 -34 -18l-31 39c15 12 32 21 51 27c36 11 77 8 114 -11c24 -13 52 -15 76 -7c12 3 24 9 34 18l32 -39c-16 -12 -33 -22 -51 -27z" />
    <glyph glyph-name="oe" unicode="&#x153;" horiz-adv-x="1305" 
d="M1120 600h-400v-275h300v-100h-300v-125h400v-100h-575c-193 0 -350 157 -350 350s157 350 350 350h575v-100zM545 100h75v500h-75c-138 0 -250 -112 -250 -250s112 -250 250 -250z" />
    <glyph glyph-name="scaron" unicode="&#x161;" horiz-adv-x="780" 
d="M572 823l-127 -39l-127 39l15 48l112 -34l112 34zM445 600c-55 0 -100 -45 -100 -100s45 -100 100 -100c110 0 200 -90 200 -200c0 -111 -90 -200 -200 -200c-87 0 -161 56 -189 133l95 34c13 -39 50 -67 94 -67c55 0 100 45 100 100s-45 100 -100 100
c-111 0 -200 89 -200 200c0 110 89 200 200 200c87 0 161 -56 189 -133l-95 -34c-13 39 -51 67 -94 67z" />
    <glyph glyph-name="Lslash" unicode="&#x141;" horiz-adv-x="1000" 
d="M475 313v-213h400v-100h-500v283l-100 -30v105l100 29v313h100v-283l100 30v-105z" />
    <glyph glyph-name="lslash" unicode="&#x142;" horiz-adv-x="1000" 
d="M475 313v-213h400v-100h-500v283l-100 -30v105l100 29v313h100v-283l100 30v-105z" />
    <glyph glyph-name="Oslash" unicode="&#xd8;" horiz-adv-x="1038" 
d="M852 704l71 -71l-74 -73c44 -59 70 -131 70 -210c0 -193 -157 -350 -350 -350c-79 0 -151 26 -210 70l-73 -74l-71 71l74 73c-44 59 -70 131 -70 210c0 193 157 350 350 350c79 0 151 -26 210 -70zM319 350c0 -51 15 -98 41 -138l347 347c-40 26 -87 41 -138 41
c-138 0 -250 -112 -250 -250zM819 350c0 51 -15 98 -41 138l-347 -347c40 -26 87 -41 138 -41c138 0 250 112 250 250z" />
    <glyph glyph-name="oslash" unicode="&#xf8;" horiz-adv-x="1038" 
d="M852 704l71 -71l-74 -73c44 -59 70 -131 70 -210c0 -193 -157 -350 -350 -350c-79 0 -151 26 -210 70l-73 -74l-71 71l74 73c-44 59 -70 131 -70 210c0 193 157 350 350 350c79 0 151 -26 210 -70zM319 350c0 -51 15 -98 41 -138l347 347c-40 26 -87 41 -138 41
c-138 0 -250 -112 -250 -250zM819 350c0 51 -15 98 -41 138l-347 -347c40 -26 87 -41 138 -41c138 0 250 112 250 250z" />
    <glyph glyph-name="asciicircum" unicode="^" horiz-adv-x="616" 
d="M358 388l127 -39l-15 -48l-112 35l-112 -35l-15 48z" />
    <glyph glyph-name="quotedbl" unicode="&#x22;" horiz-adv-x="675" 
d="M325 500h-100v200h100v-200zM550 500h-100v200h100v-200z" />
    <glyph glyph-name="quotesingle" unicode="'" horiz-adv-x="450" 
d="M325 500h-100v200h100v-200z" />
    <glyph glyph-name="quotesinglbase" unicode="&#x201a;" horiz-adv-x="450" 
d="M325 0l-50 -100h-50v200h100v-100z" />
    <glyph glyph-name="quotedblbase" unicode="&#x201e;" horiz-adv-x="650" 
d="M525 0l-50 -100h-50v200h100v-100zM325 0l-50 -100h-50v200h100v-100z" />
    <glyph glyph-name="quoteleft" unicode="&#x2018;" horiz-adv-x="450" 
d="M225 600l50 100h50v-200h-100v100z" />
    <glyph glyph-name="quoteright" unicode="&#x2019;" horiz-adv-x="450" 
d="M325 600l-50 -100h-50v200h100v-100z" />
    <glyph glyph-name="quotedblleft" unicode="&#x201c;" horiz-adv-x="650" 
d="M425 600l50 100h50v-200h-100v100zM225 600l50 100h50v-200h-100v100z" />
    <glyph glyph-name="quotedblright" unicode="&#x201d;" horiz-adv-x="650" 
d="M525 600l-50 -100h-50v200h100v-100zM325 600l-50 -100h-50v200h100v-100z" />
    <glyph glyph-name="ring" unicode="&#x2da;" horiz-adv-x="502" 
d="M376 875c0 -41 -34 -75 -75 -75s-75 34 -75 75s34 75 75 75s75 -34 75 -75zM301 900c-14 0 -25 -11 -25 -25s11 -25 25 -25s25 11 25 25s-11 25 -25 25z" />
    <glyph glyph-name="caron" unicode="&#x2c7;" horiz-adv-x="616" 
d="M485 823l-127 -39l-127 39l15 48l112 -34l112 34z" />
    <glyph glyph-name="dotaccent" unicode="&#x2d9;" horiz-adv-x="450" 
d="M325 850c0 -28 -22 -50 -50 -50s-50 22 -50 50s22 50 50 50s50 -22 50 -50z" />
    <glyph glyph-name="slash" unicode="/" horiz-adv-x="710" 
d="M251 -23l-87 50l395 696l87 -50z" />
    <glyph glyph-name="backslash" unicode="\" horiz-adv-x="710" 
d="M646 27l-87 -50l-395 696l87 50z" />
    <glyph glyph-name="grave" unicode="`" horiz-adv-x="616" 
d="M470 789l-239 74l15 48l239 -74z" />
    <glyph glyph-name="circumflex" unicode="&#x2c6;" horiz-adv-x="616" 
d="M358 876l127 -39l-15 -48l-112 35l-112 -35l-15 48z" />
    <glyph glyph-name="perthousand" unicode="&#x2030;" horiz-adv-x="1389" 
d="M495 575c0 -69 -56 -125 -125 -125s-125 56 -125 125s56 125 125 125s125 -56 125 -125zM370 650c-41 0 -75 -34 -75 -75s34 -75 75 -75s75 34 75 75s-34 75 -75 75zM329 -14l-60 45l517 684l60 -46zM1244 125c0 -69 -56 -125 -125 -125s-125 56 -125 125s56 125 125 125
s125 -56 125 -125zM1119 200c-42 0 -75 -34 -75 -75s33 -75 75 -75c41 0 75 34 75 75s-34 75 -75 75zM886 125c0 -69 -56 -125 -125 -125s-125 56 -125 125s56 125 125 125s125 -56 125 -125zM761 200c-42 0 -75 -34 -75 -75s33 -75 75 -75c41 0 75 34 75 75s-34 75 -75 75z
" />
    <glyph glyph-name="minus" unicode="&#x2212;" horiz-adv-x="850" 
d="M725 400v-100h-500v100h500z" />
    <glyph glyph-name="periodcentered" unicode="&#xb7;" horiz-adv-x="390" 
d="M295 350c0 -28 -22 -50 -50 -50s-50 22 -50 50s22 50 50 50s50 -22 50 -50z" />
    <glyph glyph-name="bullet" unicode="&#x2022;" horiz-adv-x="550" 
d="M425 350c0 -55 -45 -100 -100 -100s-100 45 -100 100s45 100 100 100s100 -45 100 -100z" />
    <glyph glyph-name="logicalnot" unicode="&#xac;" horiz-adv-x="910" 
d="M235 300v100h500v-250h-100v150h-400z" />
    <glyph glyph-name="dotlessi" unicode="&#x131;" 
d="M395 700v-700h-100v700h100z" />
    <glyph glyph-name="acute" unicode="&#xb4;" horiz-adv-x="616" 
d="M485 863l-239 -74l-15 48l239 74z" />
    <glyph glyph-name="registered" unicode="&#xae;" 
d="M495 550c0 -83 -67 -150 -150 -150s-150 67 -150 150s67 150 150 150s150 -67 150 -150zM316 542v68h34c19 0 34 -15 34 -34s-15 -34 -34 -34h-34zM389 513c21 13 35 37 35 63c0 41 -33 74 -74 74h-74v-202h40v54h32l35 -54h48z" />
    <glyph glyph-name="copyright" unicode="&#xa9;" 
d="M495 550c0 -83 -67 -150 -150 -150s-150 67 -150 150s67 150 150 150s150 -67 150 -150zM245 549c0 -56 45 -102 101 -102c33 0 63 16 81 41l4 5l-33 25l-4 -6c-11 -15 -28 -24 -48 -24c-33 0 -61 27 -61 61c0 33 28 60 61 60c20 0 37 -9 48 -24l4 -5l33 24l-4 6
c-18 24 -48 40 -81 40c-56 0 -101 -45 -101 -101z" />
    <glyph glyph-name="trademark" unicode="&#x2122;" horiz-adv-x="676" 
d="M262 660h-67v40h174v-40h-67v-161h-40v161zM494 635l44 65h43v-201h-40v134l-47 -69l-47 69v-134h-40v201h43z" />
    <glyph glyph-name="numbersign" unicode="#" horiz-adv-x="1000" 
d="M849 525l-24 -100h-95l-36 -150h95l-25 -100h-95l-42 -175h-103l43 175h-118l-42 -175h-103l42 175h-95l24 100h95l36 150h-95l24 100h95l42 175h103l-42 -175h118l42 175h103l-42 -175h95zM473 275h118l36 150h-118z" />
    <glyph glyph-name="mu" unicode="&#xb5;" horiz-adv-x="1090" 
d="M595 440l179 260h121v-700h-100v554l-200 -291l-200 291v-554h-100v700h121z" />
    <glyph glyph-name="mu" unicode="&#x3bc;" horiz-adv-x="1090" 
d="M595 440l179 260h121v-700h-100v554l-200 -291l-200 291v-554h-100v700h121z" />
    <glyph glyph-name="cent" unicode="&#xa2;" horiz-adv-x="787" 
d="M475 100c48 0 91 23 119 58l79 -60c-36 -47 -88 -81 -148 -93v-80h-100v80c-114 23 -200 124 -200 245s86 222 200 245v80h100v-80c60 -12 112 -46 148 -93l-79 -61c-28 36 -71 59 -119 59c-83 0 -150 -67 -150 -150s67 -150 150 -150z" />
    <glyph glyph-name="Ccedilla" unicode="&#xc7;" horiz-adv-x="939" 
d="M555 100c82 0 154 39 200 100l79 -61c-59 -78 -150 -131 -254 -138v-101h-75v25h25v76c-182 13 -325 164 -325 349c0 193 157 350 350 350c114 0 215 -55 279 -139l-79 -61c-46 61 -118 100 -200 100c-138 0 -250 -112 -250 -250s112 -250 250 -250z" />
    <glyph glyph-name="ccedilla" unicode="&#xe7;" horiz-adv-x="939" 
d="M555 100c82 0 154 39 200 100l79 -61c-59 -78 -150 -131 -254 -138v-101h-75v25h25v76c-182 13 -325 164 -325 349c0 193 157 350 350 350c114 0 215 -55 279 -139l-79 -61c-46 61 -118 100 -200 100c-138 0 -250 -112 -250 -250s112 -250 250 -250z" />
    <glyph glyph-name="cedilla" unicode="&#xb8;" horiz-adv-x="425" 
d="M250 -75v75h50v-100h-75v25h25z" />
    <glyph glyph-name="ordfeminine" unicode="&#xaa;" horiz-adv-x="612" 
d="M356 714l144 -264h-57l-18 33h-138l-18 -33h-57zM314 533h84l-42 77z" />
    <glyph glyph-name="ordmasculine" unicode="&#xba;" horiz-adv-x="600" 
d="M475 575c0 -69 -56 -125 -125 -125s-125 56 -125 125s56 125 125 125s125 -56 125 -125zM350 650c-41 0 -75 -34 -75 -75s34 -75 75 -75s75 34 75 75s-34 75 -75 75z" />
    <glyph glyph-name="onesuperior" unicode="&#xb9;" horiz-adv-x="340" 
d="M245 450h-50v250h50v-250z" />
    <glyph glyph-name="twosuperior" unicode="&#xb2;" horiz-adv-x="470" 
d="M375 617c0 -21 -8 -40 -20 -54l-53 -63h73v-50h-180l122 145c5 6 8 13 8 22c0 18 -15 33 -34 33c-18 0 -33 -15 -33 -33c0 -6 1 -11 3 -15l4 -8l-45 -22l-3 7c-6 11 -9 24 -9 38c0 46 37 83 83 83s84 -37 84 -83z" />
    <glyph glyph-name="threesuperior" unicode="&#xb3;" horiz-adv-x="467" 
d="M372 700l-60 -91c29 -13 49 -42 49 -76c0 -46 -37 -83 -83 -83c-34 0 -63 20 -76 49l44 25c4 -14 17 -24 32 -24c18 0 33 15 33 33c0 19 -15 34 -33 34h-54l55 83h-63v50h156z" />
    <glyph glyph-name="onehalf" unicode="&#xbd;" horiz-adv-x="1005" 
d="M334 450h-50v250h50v-250zM314 -14l-59 45l517 684l60 -46zM860 167c0 -21 -8 -40 -20 -54l-53 -63h73v-50h-180l122 145c5 6 8 13 8 22c0 18 -15 33 -34 33c-18 0 -33 -15 -33 -33c0 -6 1 -11 4 -16l3 -7l-44 -22l-4 7c-6 11 -9 24 -9 38c0 46 37 83 83 83
s84 -37 84 -83z" />
    <glyph glyph-name="threequarters" unicode="&#xbe;" horiz-adv-x="1022" 
d="M422 700l-60 -91c29 -13 50 -42 50 -76c0 -46 -38 -83 -84 -83c-33 0 -62 20 -76 49l44 25c4 -14 17 -24 32 -24c19 0 34 15 34 33c0 19 -15 34 -34 34h-54l55 83h-63v50h156zM330 -14l-60 45l518 684l59 -46zM737 254l49 -11l-31 -135h38v100h50v-100h34v-50h-34v-58
h-50v58h-101z" />
    <glyph glyph-name="onequarter" unicode="&#xbc;" horiz-adv-x="1007" 
d="M334 450h-50v250h50v-250zM315 -14l-60 45l518 684l59 -46zM722 254l49 -11l-31 -135h38v100h50v-100h34v-50h-34v-58h-50v58h-101z" />
    <glyph glyph-name="fraction" unicode="&#x2044;" horiz-adv-x="807" 
d="M225 -14l-60 45l518 684l59 -46z" />
    <glyph glyph-name="paragraph" unicode="&#xb6;" horiz-adv-x="860" 
d="M405 700h300v-100h-50v-600h-100v600h-50v-600h-100v300c-111 0 -200 89 -200 200c0 110 89 200 200 200z" />
    <glyph glyph-name="A" unicode="A" horiz-adv-x="1085" 
d="M869 0l-69 125h-416l-68 -125h-114l390 714l391 -714h-114zM439 225h307l-154 281z" />
    <glyph glyph-name="afii61352" unicode="&#x2116;" horiz-adv-x="1496" 
d="M1291 65h-257v100h257v-100zM1251 418c0 45 -37 81 -81 81c-45 0 -81 -36 -81 -81s36 -81 81 -81c44 0 81 36 81 81zM1170 599c100 0 181 -81 181 -181s-81 -181 -181 -181s-181 81 -181 181s81 181 181 181zM841 0l-96 -15l-191 466c-37 -358 -153 -499 -339 -496v100
c188 -12 249 265 249 625l97 19l202 -493s51 450 118 568l87 -50c-35 -74 -92 -331 -127 -724z" />
    </font>
</defs>
</svg>
