<?xml version="1.0" standalone="no"?>
<!DOCTYPE svg PUBLIC "-//W3C//DTD SVG 1.1//EN" "http://www.w3.org/Graphics/SVG/1.1/DTD/svg11.dtd" >
<svg xmlns="http://www.w3.org/2000/svg" xmlns:xlink="http://www.w3.org/1999/xlink" version="1.1">
<metadata>
Created by FontForge 20190801 at Mon Feb 27 23:07:12 2012
 By Jimmy Wärting
Copyright (c) 2012 by Juri Zaech. All rights reserved.
</metadata>
<defs>
<font id="Frontage-Bold" horiz-adv-x="590" >
  <font-face 
    font-family="Frontage Bold"
    font-weight="400"
    font-stretch="normal"
    units-per-em="1000"
    panose-1="2 0 5 5 0 0 0 2 0 4"
    ascent="750"
    descent="-250"
    x-height="725"
    cap-height="725"
    bbox="-25 -200 1376 975.25"
    underline-thickness="50"
    underline-position="-100"
    unicode-range="U+0020-2212"
  />
<missing-glyph horiz-adv-x="699" 
 />
    <glyph glyph-name=".notdef" horiz-adv-x="699" 
 />
    <glyph glyph-name="B" unicode="B" horiz-adv-x="1030" 
d="M834 377c52 -41 86 -105 86 -177c0 -124 -101 -225 -225 -225h-425v750h375c124 0 225 -101 225 -225c0 -45 -13 -87 -36 -123zM420 425h225c41 0 75 34 75 75s-34 75 -75 75h-225v-150zM419 125h276c41 0 75 34 75 75s-34 75 -75 75h-276v-150z" />
    <glyph glyph-name="C" unicode="C" horiz-adv-x="939" 
d="M180 350c0 207 168 375 375 375c122 0 231 -59 299 -149l15 -20l-119 -91l-15 20c-41 55 -106 90 -180 90c-124 0 -225 -101 -225 -225s101 -225 225 -225c74 0 139 35 180 90l15 20l119 -91l-15 -20c-68 -91 -177 -149 -299 -149c-207 0 -375 168 -375 375z" />
    <glyph glyph-name="D" unicode="D" horiz-adv-x="1000" 
d="M545 -25h-275v750h275c207 0 375 -168 375 -375s-168 -375 -375 -375zM420 125h125c124 0 225 101 225 225s-101 225 -225 225h-125v-450z" />
    <glyph glyph-name="E" unicode="E" horiz-adv-x="980" 
d="M270 -25v750h550v-150h-400v-225h300v-150h-300v-75h400v-150h-550z" />
    <glyph glyph-name="F" unicode="F" horiz-adv-x="930" 
d="M270 -25v750h550v-150h-400v-225h300v-150h-300v-225h-150z" />
    <glyph glyph-name="G" unicode="G" horiz-adv-x="989" 
d="M865 375v-250c-68 -91 -177 -150 -300 -150c-207 0 -375 168 -375 375s168 375 375 375c131 0 246 -67 313 -169l-119 -92c-39 66 -111 111 -194 111c-124 0 -225 -101 -225 -225s101 -225 225 -225c58 0 110 22 150 57v43h-175v150h325z" />
    <glyph glyph-name="H" unicode="H" horiz-adv-x="1090" 
d="M770 725h150v-750h-150v225h-350v-225h-150v750h150v-375h350v375z" />
    <glyph glyph-name="I" unicode="I" 
d="M420 725v-750h-150v750h150z" />
    <glyph glyph-name="J" unicode="J" horiz-adv-x="848" 
d="M195 82l-15 20l119 92l15 -20c23 -30 59 -49 99 -49c69 0 125 56 125 125v475h150v-475c0 -152 -123 -275 -275 -275c-89 0 -168 42 -218 107z" />
    <glyph glyph-name="K" unicode="K" horiz-adv-x="995" 
d="M270 -25v750h150v-284l261 284h204l-276 -301l281 -449h-177l-209 335l-84 -91v-244h-150z" />
    <glyph glyph-name="L" unicode="L" horiz-adv-x="920" 
d="M270 -25v750h150v-600h400v-150h-550z" />
    <glyph glyph-name="M" unicode="M" horiz-adv-x="1134" 
d="M251 -25l58 750h38l271 -293l270 293h39l57 -750h-150l-33 434l-183 -198l-183 198l-34 -434h-150z" />
    <glyph glyph-name="N" unicode="N" horiz-adv-x="1090" 
d="M270 -25v750h40l460 -438v438h150v-750h-41l-459 438v-438h-150z" />
    <glyph glyph-name="O" unicode="O" horiz-adv-x="990" 
d="M920 350c0 -207 -168 -375 -375 -375s-375 168 -375 375s168 375 375 375s375 -168 375 -375zM545 575c-124 0 -225 -101 -225 -225s101 -225 225 -225s225 101 225 225s-101 225 -225 225z" />
    <glyph glyph-name="P" unicode="P" horiz-adv-x="900" 
d="M420 325h125c69 0 125 56 125 125s-56 125 -125 125h-125v-250zM545 175h-125v-200h-150v750h275c152 0 275 -123 275 -275s-123 -275 -275 -275z" />
    <glyph glyph-name="Q" unicode="Q" horiz-adv-x="1040" 
d="M930 350c0 -101 -40 -192 -104 -259l76 -116h-179l-20 30c-46 -19 -96 -30 -148 -30c-207 0 -375 168 -375 375s168 375 375 375s375 -168 375 -375zM555 125c22 0 43 3 63 9l-69 105h180l11 -17c25 36 40 80 40 128c0 124 -101 225 -225 225s-225 -101 -225 -225
s101 -225 225 -225z" />
    <glyph glyph-name="R" unicode="R" horiz-adv-x="963" 
d="M420 325h125c69 0 125 56 125 125s-56 125 -125 125h-125v-250zM690 216l158 -241h-179l-131 200h-118v-200h-150v750h275c152 0 275 -123 275 -275c0 -99 -52 -185 -130 -234z" />
    <glyph glyph-name="S" unicode="S" horiz-adv-x="780" 
d="M445 425c124 0 225 -101 225 -225s-101 -225 -225 -225c-107 0 -196 74 -219 174l144 51c0 -41 34 -75 75 -75s75 34 75 75s-34 75 -75 75c-124 0 -225 101 -225 225s101 225 225 225c107 0 196 -74 219 -174l-144 -51c0 41 -34 75 -75 75s-75 -34 -75 -75s34 -75 75 -75
z" />
    <glyph glyph-name="T" unicode="T" horiz-adv-x="950" 
d="M200 575v150h650v-150h-250v-600h-150v600h-250z" />
    <glyph glyph-name="U" unicode="U" horiz-adv-x="1050" 
d="M900 725v-425c0 -180 -146 -325 -325 -325c-180 0 -325 145 -325 325v425h150v-425c0 -97 78 -175 175 -175s175 78 175 175v425h150z" />
    <glyph glyph-name="V" unicode="V" horiz-adv-x="985" 
d="M975 725l-410 -750h-45l-410 750h171l262 -479l261 479h171z" />
    <glyph glyph-name="W" unicode="W" horiz-adv-x="1133" 
d="M617 350l-144 -375h-45l-288 750h161l149 -390l150 390h34l149 -390l150 390h160l-287 -750h-45z" />
    <glyph glyph-name="X" unicode="X" horiz-adv-x="940" 
d="M431 360l-229 365h177l141 -224l140 224h177l-229 -365l242 -385h-177l-153 244l-153 -244h-177z" />
    <glyph glyph-name="Y" unicode="Y" horiz-adv-x="893" 
d="M421 244l-301 481h177l199 -318l200 318h177l-302 -481v-269h-150v269z" />
    <glyph glyph-name="Z" unicode="Z" horiz-adv-x="864" 
d="M222 575v150h552l-330 -600h313v-150h-567l330 600h-298z" />
    <glyph glyph-name="zero" unicode="0" horiz-adv-x="990" 
d="M920 350c0 -207 -168 -375 -375 -375s-375 168 -375 375s168 375 375 375s375 -168 375 -375zM545 575c-124 0 -225 -101 -225 -225s101 -225 225 -225s225 101 225 225s-101 225 -225 225z" />
    <glyph glyph-name="one" unicode="1" 
d="M420 725v-750h-150v750h150z" />
    <glyph glyph-name="two" unicode="2" horiz-adv-x="839" 
d="M709 475c0 -61 -22 -118 -58 -162l-159 -188h217v-150h-539l366 435c15 17 23 40 23 65c0 55 -44 100 -100 100c-55 0 -100 -45 -100 -100c0 -16 4 -32 11 -45l11 -23l-134 -67l-11 23c-17 33 -27 72 -27 112c0 138 112 250 250 250s250 -112 250 -250z" />
    <glyph glyph-name="three" unicode="3" horiz-adv-x="830" 
d="M540 453c87 -39 148 -126 148 -228c0 -138 -112 -250 -250 -250c-101 0 -188 60 -228 146l132 76c12 -41 50 -72 96 -72c55 0 100 45 100 100s-45 100 -100 100h-163l166 250h-189v150h468z" />
    <glyph glyph-name="four" unicode="4" horiz-adv-x="895" 
d="M220 150l137 588l146 -34l-94 -404h116v300h150v-300h100v-150h-100v-175h-150v175h-305z" />
    <glyph glyph-name="five" unicode="5" horiz-adv-x="838" 
d="M404 469c18 4 35 6 54 6c138 0 250 -112 250 -250s-112 -250 -250 -250c-102 0 -189 60 -228 147l131 76c12 -42 51 -73 97 -73c55 0 100 45 100 100s-45 100 -100 100c-40 0 -74 -23 -90 -57l-132 53l48 404h374v-150h-241z" />
    <glyph glyph-name="six" unicode="6" horiz-adv-x="820" 
d="M360 227c0 -55 45 -100 100 -100s100 45 100 100s-45 100 -100 100s-100 -45 -100 -100zM472 477c132 -7 238 -116 238 -250c0 -138 -112 -250 -250 -250s-250 112 -250 250c0 41 10 80 28 115l208 420l134 -66z" />
    <glyph glyph-name="seven" unicode="7" horiz-adv-x="848" 
d="M220 575v150h538l-174 -400h48v-150h-114l-94 -216l-137 60l68 156h-48v150h113l109 250h-309z" />
    <glyph glyph-name="eight" unicode="8" horiz-adv-x="800" 
d="M615 412c52 -45 85 -112 85 -187c0 -138 -112 -250 -250 -250s-250 112 -250 250c0 75 33 142 85 187c-22 32 -35 71 -35 113c0 110 89 200 200 200c110 0 200 -90 200 -200c0 -42 -13 -81 -35 -113zM450 475c28 0 50 22 50 50s-22 50 -50 50s-50 -22 -50 -50
s22 -50 50 -50zM450 325c-55 0 -100 -45 -100 -100s45 -100 100 -100s100 45 100 100s-45 100 -100 100z" />
    <glyph glyph-name="nine" unicode="9" horiz-adv-x="780" 
d="M540 475c0 55 -45 100 -100 100s-100 -45 -100 -100s45 -100 100 -100s100 45 100 100zM428 225c-133 6 -238 116 -238 250c0 138 112 250 250 250s250 -112 250 -250c0 -41 -10 -80 -28 -115l-208 -420l-134 66z" />
    <glyph glyph-name="a" unicode="a" horiz-adv-x="1085" 
d="M854 -25l-69 125h-386l-68 -125h-171l432 791l433 -791h-171zM481 250h222l-111 204z" />
    <glyph glyph-name="b" unicode="b" horiz-adv-x="1030" 
d="M834 377c52 -41 86 -105 86 -177c0 -124 -101 -225 -225 -225h-425v750h375c124 0 225 -101 225 -225c0 -45 -13 -87 -36 -123zM420 425h225c41 0 75 34 75 75s-34 75 -75 75h-225v-150zM419 125h276c41 0 75 34 75 75s-34 75 -75 75h-276v-150z" />
    <glyph glyph-name="c" unicode="c" horiz-adv-x="939" 
d="M180 350c0 207 168 375 375 375c122 0 231 -59 299 -149l15 -20l-119 -91l-15 20c-41 55 -106 90 -180 90c-124 0 -225 -101 -225 -225s101 -225 225 -225c74 0 139 35 180 90l15 20l119 -91l-15 -20c-68 -91 -177 -149 -299 -149c-207 0 -375 168 -375 375z" />
    <glyph glyph-name="d" unicode="d" horiz-adv-x="1000" 
d="M545 -25h-275v750h275c207 0 375 -168 375 -375s-168 -375 -375 -375zM420 125h125c124 0 225 101 225 225s-101 225 -225 225h-125v-450z" />
    <glyph glyph-name="e" unicode="e" horiz-adv-x="980" 
d="M270 -25v750h550v-150h-400v-225h300v-150h-300v-75h400v-150h-550z" />
    <glyph glyph-name="f" unicode="f" horiz-adv-x="930" 
d="M270 -25v750h550v-150h-400v-225h300v-150h-300v-225h-150z" />
    <glyph glyph-name="g" unicode="g" horiz-adv-x="989" 
d="M865 375v-250c-68 -91 -177 -150 -300 -150c-207 0 -375 168 -375 375s168 375 375 375c131 0 246 -67 313 -169l-119 -92c-39 66 -111 111 -194 111c-124 0 -225 -101 -225 -225s101 -225 225 -225c58 0 110 22 150 57v43h-175v150h325z" />
    <glyph glyph-name="h" unicode="h" horiz-adv-x="1090" 
d="M770 725h150v-750h-150v225h-350v-225h-150v750h150v-375h350v375z" />
    <glyph glyph-name="i" unicode="i" 
d="M420 725v-750h-150v750h150z" />
    <glyph glyph-name="j" unicode="j" horiz-adv-x="848" 
d="M195 82l-15 20l119 92l15 -20c23 -30 59 -49 99 -49c69 0 125 56 125 125v475h150v-475c0 -152 -123 -275 -275 -275c-89 0 -168 42 -218 107z" />
    <glyph glyph-name="k" unicode="k" horiz-adv-x="995" 
d="M270 -25v750h150v-284l261 284h204l-276 -301l281 -449h-177l-209 335l-84 -91v-244h-150z" />
    <glyph glyph-name="l" unicode="l" horiz-adv-x="920" 
d="M270 -25v750h150v-600h400v-150h-550z" />
    <glyph glyph-name="m" unicode="m" horiz-adv-x="1134" 
d="M251 -25l58 750h38l271 -293l270 293h39l57 -750h-150l-33 434l-183 -198l-183 198l-34 -434h-150z" />
    <glyph glyph-name="n" unicode="n" horiz-adv-x="1090" 
d="M270 -25v750h40l460 -438v438h150v-750h-41l-459 438v-438h-150z" />
    <glyph glyph-name="o" unicode="o" horiz-adv-x="990" 
d="M920 350c0 -207 -168 -375 -375 -375s-375 168 -375 375s168 375 375 375s375 -168 375 -375zM545 575c-124 0 -225 -101 -225 -225s101 -225 225 -225s225 101 225 225s-101 225 -225 225z" />
    <glyph glyph-name="p" unicode="p" horiz-adv-x="900" 
d="M420 325h125c69 0 125 56 125 125s-56 125 -125 125h-125v-250zM545 175h-125v-200h-150v750h275c152 0 275 -123 275 -275s-123 -275 -275 -275z" />
    <glyph glyph-name="q" unicode="q" horiz-adv-x="1040" 
d="M930 350c0 -101 -40 -192 -104 -259l76 -116h-179l-20 30c-46 -19 -96 -30 -148 -30c-207 0 -375 168 -375 375s168 375 375 375s375 -168 375 -375zM555 125c22 0 43 3 63 9l-69 105h180l11 -17c25 36 40 80 40 128c0 124 -101 225 -225 225s-225 -101 -225 -225
s101 -225 225 -225z" />
    <glyph glyph-name="r" unicode="r" horiz-adv-x="963" 
d="M420 325h125c69 0 125 56 125 125s-56 125 -125 125h-125v-250zM690 216l158 -241h-179l-131 200h-118v-200h-150v750h275c152 0 275 -123 275 -275c0 -99 -52 -185 -130 -234z" />
    <glyph glyph-name="s" unicode="s" horiz-adv-x="780" 
d="M445 425c124 0 225 -101 225 -225s-101 -225 -225 -225c-107 0 -196 74 -219 174l144 51c0 -41 34 -75 75 -75s75 34 75 75s-34 75 -75 75c-124 0 -225 101 -225 225s101 225 225 225c107 0 196 -74 219 -174l-144 -51c0 41 -34 75 -75 75s-75 -34 -75 -75s34 -75 75 -75
z" />
    <glyph glyph-name="t" unicode="t" horiz-adv-x="950" 
d="M200 575v150h650v-150h-250v-600h-150v600h-250z" />
    <glyph glyph-name="u" unicode="u" horiz-adv-x="1050" 
d="M900 725v-425c0 -180 -146 -325 -325 -325c-180 0 -325 145 -325 325v425h150v-425c0 -97 78 -175 175 -175s175 78 175 175v425h150z" />
    <glyph glyph-name="v" unicode="v" horiz-adv-x="985" 
d="M975 725l-410 -750h-45l-410 750h171l262 -479l261 479h171z" />
    <glyph glyph-name="w" unicode="w" horiz-adv-x="1133" 
d="M617 350l-144 -375h-45l-288 750h161l149 -390l150 390h34l149 -390l150 390h160l-287 -750h-45z" />
    <glyph glyph-name="x" unicode="x" horiz-adv-x="940" 
d="M431 360l-229 365h177l141 -224l140 224h177l-229 -365l242 -385h-177l-153 244l-153 -244h-177z" />
    <glyph glyph-name="y" unicode="y" horiz-adv-x="893" 
d="M421 244l-301 481h177l199 -318l200 318h177l-302 -481v-269h-150v269z" />
    <glyph glyph-name="z" unicode="z" horiz-adv-x="864" 
d="M222 575v150h552l-330 -600h313v-150h-567l330 600h-298z" />
    <glyph glyph-name="exclam" unicode="!" 
d="M420 725v-550h-150v550h150zM420 125v-150h-150v150h150z" />
    <glyph glyph-name="exclamdown" unicode="&#xa1;" 
d="M270 -25v550h150v-550h-150zM270 575v150h150v-150h-150z" />
    <glyph glyph-name="question" unicode="?" horiz-adv-x="703" 
d="M320 -25v150h150v-150h-150zM395 725c132 0 238 -106 238 -238c0 -105 -68 -194 -163 -225v-87h-150v225h75c49 0 88 39 88 87c0 49 -39 88 -88 88c-44 0 -81 -33 -86 -76l-139 62c31 95 120 164 225 164z" />
    <glyph glyph-name="questiondown" unicode="&#xbf;" horiz-adv-x="703" 
d="M482 725v-150h-150v150h150zM407 -25c-131 0 -237 106 -237 237c0 105 68 194 162 226v87h150v-225h-75c-48 0 -87 -39 -87 -88c0 -48 39 -87 87 -87c45 0 81 33 87 76l139 -62c-31 -95 -120 -164 -226 -164z" />
    <glyph glyph-name="parenleft" unicode="(" horiz-adv-x="548" 
d="M350 350c0 -123 36 -237 98 -334l-130 -75c-75 119 -118 259 -118 409s43 290 118 409l130 -75c-62 -97 -98 -211 -98 -334z" />
    <glyph glyph-name="parenright" unicode=")" horiz-adv-x="547" 
d="M297 350c0 123 -35 237 -97 334l130 75c74 -119 117 -259 117 -409s-43 -290 -117 -409l-130 75c62 97 97 211 97 334z" />
    <glyph glyph-name="bracketleft" unicode="[" horiz-adv-x="595" 
d="M475 675h-75v-650h75v-150h-225v950h225v-150z" />
    <glyph glyph-name="bracketright" unicode="]" horiz-adv-x="595" 
d="M295 675h-75v150h225v-950h-225v150h75v650z" />
    <glyph glyph-name="braceleft" unicode="{" horiz-adv-x="646" 
d="M250 350l23 19c16 14 26 34 26 57v174c0 101 67 187 159 215l24 7l44 -143l-24 -7c-30 -10 -53 -38 -53 -72v-174c0 -27 -4 -52 -13 -76c9 -24 13 -49 13 -76v-174c0 -34 23 -62 53 -72l24 -7l-44 -143l-24 7c-92 28 -159 114 -159 215v174c0 23 -10 43 -26 57z" />
    <glyph glyph-name="braceright" unicode="}" horiz-adv-x="645" 
d="M472 369l23 -19l-23 -19c-16 -14 -26 -34 -26 -57v-174c0 -101 -67 -187 -159 -215l-24 -7l-44 143l24 7c31 10 53 38 53 72v174c0 27 5 52 13 76c-8 24 -13 49 -13 76v174c0 34 -22 62 -53 72l-24 7l44 143l24 -7c92 -28 159 -114 159 -215v-174c0 -23 10 -43 26 -57z
" />
    <glyph glyph-name="section" unicode="&#xa7;" horiz-adv-x="840" 
d="M720 350c0 -56 -18 -107 -49 -149c15 -30 24 -65 24 -101c0 -124 -101 -225 -225 -225c-107 0 -196 74 -219 174l144 51c0 -41 34 -75 75 -75s75 34 75 75c0 4 0 7 -1 11c-23 -7 -48 -11 -74 -11c-138 0 -250 112 -250 250c0 56 18 107 49 149c-15 30 -24 65 -24 101
c0 124 101 225 225 225c107 0 196 -74 219 -174l-144 -51c0 41 -34 75 -75 75s-75 -34 -75 -75c0 -4 0 -8 1 -11c23 7 48 11 74 11c138 0 250 -112 250 -250zM370 350c0 -55 45 -100 100 -100s100 45 100 100s-45 100 -100 100s-100 -45 -100 -100z" />
    <glyph glyph-name="at" unicode="@" horiz-adv-x="1030" 
d="M940 350c0 -124 -101 -225 -225 -225c-8 0 -16 0 -23 1l48 -108c-52 -27 -112 -43 -175 -43c-207 0 -375 168 -375 375s168 375 375 375s375 -168 375 -375zM540 350c0 -14 11 -25 25 -25s25 11 25 25s-11 25 -25 25s-25 -11 -25 -25zM565 125c26 0 52 5 75 13
c-24 8 -47 21 -67 37h-8c-97 0 -175 78 -175 175s78 175 175 175s175 -78 175 -175c0 -27 -6 -52 -17 -75c38 5 67 36 67 75c0 124 -101 225 -225 225s-225 -101 -225 -225s101 -225 225 -225z" />
    <glyph glyph-name="asterisk" unicode="*" horiz-adv-x="1004" 
d="M914 472l-212 -122l212 -123l-75 -130l-212 123v-245h-150v245l-212 -123l-75 130l212 123l-212 122l75 130l212 -122v245h150v-245l212 122z" />
    <glyph glyph-name="ampersand" unicode="&#x26;" horiz-adv-x="960" 
d="M469 532c10 10 10 26 0 36c-10 9 -26 9 -35 0c-10 -10 -10 -26 0 -36l17 -17zM402 147c29 -29 77 -29 106 0l49 49l-106 106l-49 -49c-29 -29 -29 -77 0 -106zM575 674c68 -69 68 -179 0 -248l-18 -17l106 -107l91 91l106 -106l-90 -91l90 -90l-106 -106l-91 90l-49 -49
c-88 -88 -230 -88 -318 0s-88 230 0 318l49 50l-17 17c-69 69 -69 179 0 248c68 68 179 68 247 0z" />
    <glyph glyph-name="percent" unicode="%" horiz-adv-x="1031" 
d="M420 575c0 28 -22 50 -50 50s-50 -22 -50 -50s22 -50 50 -50s50 22 50 50zM370 725c83 0 150 -67 150 -150s-67 -150 -150 -150s-150 67 -150 150s67 150 150 150zM881 674l-548 -723l-99 76l548 723zM811 125c0 28 -23 50 -50 50c-28 0 -50 -22 -50 -50s22 -50 50 -50
c27 0 50 22 50 50zM761 275c83 0 150 -67 150 -150s-67 -150 -150 -150s-150 67 -150 150s67 150 150 150z" />
    <glyph glyph-name="plusminus" unicode="&#xb1;" horiz-adv-x="850" 
d="M750 550v-150h-200v-200h-150v200h-200v150h200v200h150v-200h200zM750 25v150h-550v-150h550z" />
    <glyph glyph-name="plus" unicode="+" horiz-adv-x="850" 
d="M750 425v-150h-200v-200h-150v200h-200v150h200v200h150v-200h200z" />
    <glyph glyph-name="guillemotleft" unicode="&#xab;" horiz-adv-x="738" 
d="M160 350l168 240l123 -86l-107 -154l107 -154l-123 -86zM387 350l168 240l123 -86l-108 -154l108 -154l-123 -86z" />
    <glyph glyph-name="guillemotright" unicode="&#xbb;" horiz-adv-x="738" 
d="M511 590l167 -240l-167 -240l-123 86l107 154l-107 154zM284 590l167 -240l-167 -240l-123 86l107 154l-107 154z" />
    <glyph glyph-name="guilsinglleft" unicode="&#x2039;" horiz-adv-x="511" 
d="M160 350l168 240l123 -86l-108 -154l108 -154l-123 -86z" />
    <glyph glyph-name="guilsinglright" unicode="&#x203a;" horiz-adv-x="511" 
d="M284 590l167 -240l-167 -240l-123 86l107 154l-107 154z" />
    <glyph glyph-name="equal" unicode="=" horiz-adv-x="850" 
d="M750 525v-150h-550v150h550zM750 325v-150h-550v150h550z" />
    <glyph glyph-name="bar" unicode="|" 
d="M420 825v-950h-150v950h150z" />
    <glyph glyph-name="less" unicode="&#x3c;" horiz-adv-x="822" 
d="M220 416l395 194l67 -135l-255 -125l255 -125l-67 -135l-395 194v132z" />
    <glyph glyph-name="greater" unicode="&#x3e;" horiz-adv-x="822" 
d="M307 610l395 -194v-132l-395 -194l-66 135l254 125l-254 125z" />
    <glyph glyph-name="sterling" unicode="&#xa3;" horiz-adv-x="910" 
d="M488 125h302v-150h-550v150h75c14 0 25 11 25 25v25h-100v150h100v200c0 110 89 200 200 200c87 0 161 -56 188 -133l9 -24l-142 -50l-8 24c-7 19 -25 33 -47 33c-28 0 -50 -22 -50 -50v-200h100v-150h-100v-25c0 -9 -1 -17 -2 -25z" />
    <glyph glyph-name="Euro" unicode="&#x20ac;" horiz-adv-x="1039" 
d="M835 215l15 20l119 -91l-15 -20c-68 -91 -177 -149 -299 -149c-144 0 -269 81 -332 200h-143l37 150h64c-1 8 -1 17 -1 25s0 17 1 25h-83l37 150h88c63 119 188 200 332 200c122 0 231 -59 299 -149l15 -20l-119 -91l-15 20c-41 55 -106 90 -180 90
c-54 0 -103 -19 -141 -50h123l-38 -150h-168c-1 -8 -1 -17 -1 -25c0 -9 0 -17 1 -25h188l-38 -150h-67c38 -31 87 -50 141 -50c74 0 139 35 180 90z" />
    <glyph glyph-name="Agrave" unicode="&#xc0;" horiz-adv-x="1085" 
d="M749 854l-30 -96l-287 88l30 96zM854 -25l-68 125h-387l-68 -125h-171l433 791l432 -791h-171zM481 250h223l-111 204z" />
    <glyph glyph-name="Aacute" unicode="&#xc1;" horiz-adv-x="1085" 
d="M462 758l-29 96l286 88l30 -96zM854 -25l-68 125h-387l-68 -125h-171l433 791l432 -791h-171zM481 250h223l-111 204z" />
    <glyph glyph-name="Acircumflex" unicode="&#xc2;" horiz-adv-x="1085" 
d="M751 854l-29 -96l-129 40l-129 -40l-29 96l158 48zM855 -25l-69 125h-386l-68 -125h-171l432 791l432 -791h-170zM482 250h222l-111 204z" />
    <glyph glyph-name="Atilde" unicode="&#xc3;" horiz-adv-x="1085" 
d="M703 782c-43 -13 -91 -10 -133 13c-19 10 -39 11 -58 5c-9 -2 -17 -7 -25 -13l-19 -16l-63 78l19 15c18 15 38 25 59 32c43 13 91 10 133 -13c19 -10 39 -11 58 -5c9 2 17 7 25 13l19 16l63 -78l-19 -15c-18 -15 -38 -25 -59 -32zM855 -25l-69 125h-386l-68 -125h-171
l432 791l432 -791h-170zM482 250h222l-111 204z" />
    <glyph glyph-name="Adieresis" unicode="&#xc4;" horiz-adv-x="1085" 
d="M495 903c30 -29 30 -77 0 -106c-29 -29 -77 -29 -106 0s-29 77 0 106s77 29 106 0zM795 903c30 -29 30 -77 0 -106c-29 -29 -77 -29 -106 0s-29 77 0 106s77 29 106 0zM854 -25l-69 125h-386l-68 -125h-171l432 791l433 -791h-171zM481 250h222l-111 204z" />
    <glyph glyph-name="Aring" unicode="&#xc5;" horiz-adv-x="1085" 
d="M662 946c39 -39 39 -103 0 -142s-102 -39 -141 0s-39 103 0 142s102 39 141 0zM853 -25l-68 125h-387l-68 -125h-171l432 792l433 -792h-171zM480 250h223l-112 204z" />
    <glyph glyph-name="AE" unicode="&#xc6;" horiz-adv-x="1348" 
d="M1188 575h-400v-225h300v-150h-300v-75h400v-150h-550v100h-253l-54 -100h-171l409 750h619v-150zM467 225h171v313z" />
    <glyph glyph-name="comma" unicode="," horiz-adv-x="450" 
d="M200 -125v250h150v-131l-60 -119h-90z" />
    <glyph glyph-name="semicolon" unicode=";" horiz-adv-x="450" 
d="M200 -125v250h150v-131l-60 -119h-90zM350 525v-150h-150v150h150z" />
    <glyph glyph-name="currency" unicode="&#xa4;" horiz-adv-x="830" 
d="M730 191l-106 -106l-62 62c-61 -29 -133 -29 -194 0l-62 -62l-106 106l62 62c-30 61 -30 133 0 194l-62 62l106 106l62 -62c61 29 133 29 194 0l62 62l106 -106l-62 -62c29 -61 29 -133 0 -194zM412 297c29 -29 77 -29 106 0s29 77 0 106s-77 29 -106 0
c-30 -29 -30 -77 0 -106z" />
    <glyph glyph-name="dagger" unicode="&#x2020;" horiz-adv-x="750" 
d="M650 575v-150h-150v-450h-150v450h-150v150h150v150h150v-150h150z" />
    <glyph glyph-name="daggerdbl" unicode="&#x2021;" horiz-adv-x="750" 
d="M650 425h-150v-150h150v-150h-150v-150h-150v150h-150v150h150v150h-150v150h150v150h150v-150h150v-150z" />
    <glyph glyph-name="degree" unicode="&#xb0;" horiz-adv-x="490" 
d="M320 600c0 14 -11 25 -25 25s-25 -11 -25 -25s11 -25 25 -25s25 11 25 25zM295 725c69 0 125 -56 125 -125s-56 -125 -125 -125s-125 56 -125 125s56 125 125 125z" />
    <glyph glyph-name="divide" unicode="&#xf7;" horiz-adv-x="850" 
d="M546 621c39 -39 39 -103 0 -142s-103 -39 -142 0s-39 103 0 142s103 39 142 0zM750 425v-150h-550v150h550zM546 221c39 -39 39 -103 0 -142s-103 -39 -142 0s-39 103 0 142s103 39 142 0z" />
    <glyph glyph-name="hyphen" unicode="-" 
d="M520 425v-150h-350v150h350z" />
    <glyph glyph-name="endash" unicode="&#x2013;" horiz-adv-x="850" 
d="M750 425v-150h-550v150h550z" />
    <glyph glyph-name="emdash" unicode="&#x2014;" horiz-adv-x="1350" 
d="M1250 425v-150h-1050v150h1050z" />
    <glyph glyph-name="underscore" unicode="_" horiz-adv-x="700" 
d="M725 -50v-150h-750v150h750z" />
    <glyph glyph-name="dollar" unicode="$" horiz-adv-x="780" 
d="M670 200c0 -98 -63 -181 -150 -212v-88h-150v88c-72 25 -127 86 -144 161l144 51c0 -41 33 -75 75 -75c41 0 75 34 75 75s-34 75 -75 75c-124 0 -225 101 -225 225c0 98 62 181 150 212v88h150v-88c72 -25 127 -86 144 -161l-144 -51c0 41 -34 75 -75 75
c-42 0 -75 -34 -75 -75s33 -75 75 -75c124 0 225 -101 225 -225z" />
    <glyph glyph-name="Egrave" unicode="&#xc8;" horiz-adv-x="980" 
d="M703 854l-29 -96l-287 88l29 96zM270 -25v750h550v-150h-400v-225h300v-150h-300v-75h400v-150h-550z" />
    <glyph glyph-name="Eacute" unicode="&#xc9;" horiz-adv-x="980" 
d="M416 758l-29 96l287 88l29 -96zM270 725v-750h550v150h-400v75h300v150h-300v225h400v150h-550z" />
    <glyph glyph-name="Ecircumflex" unicode="&#xca;" horiz-adv-x="980" 
d="M703 854l-29 -96l-129 40l-129 -40l-29 96l158 48zM270 725v-750h550v150h-400v75h300v150h-300v225h400v150h-550z" />
    <glyph glyph-name="Edieresis" unicode="&#xcb;" horiz-adv-x="980" 
d="M448 903c30 -29 30 -77 0 -106c-29 -29 -76 -29 -106 0c-29 29 -29 77 0 106c30 29 77 29 106 0zM748 903c30 -29 30 -77 0 -106c-29 -29 -76 -29 -106 0c-29 29 -29 77 0 106c30 29 77 29 106 0zM270 -25v750h550v-150h-400v-225h300v-150h-300v-75h400v-150h-550z" />
    <glyph glyph-name="Eth" unicode="&#xd0;" horiz-adv-x="1050" 
d="M595 725c207 0 375 -168 375 -375s-168 -375 -375 -375h-275v200h-100v150h100v400h275zM595 125c124 0 225 101 225 225s-101 225 -225 225h-125v-250h100v-150h-100v-50h125z" />
    <glyph glyph-name="florin" unicode="&#x192;" horiz-adv-x="774" 
d="M543 576l-14 -101h130l-20 -150h-130l-31 -223c-13 -96 -101 -163 -197 -149c-85 11 -147 82 -151 164l146 30l6 -26c1 -10 10 -18 21 -20c13 -2 26 8 28 21l28 203h-100l21 150h99l17 122c13 95 102 162 197 149c85 -12 147 -82 151 -164l-146 -30l-5 25
c-2 11 -10 19 -21 20c-14 2 -27 -7 -29 -21z" />
    <glyph glyph-name="germandbls" unicode="&#xdf;" horiz-adv-x="890" 
d="M270 -25v525c0 124 101 225 225 225s225 -101 225 -225c0 -62 -25 -118 -66 -159c-29 -29 -29 -77 0 -106c41 -41 66 -97 66 -159v-101h-150v101c0 20 -8 39 -22 53c-88 88 -88 230 0 318c14 14 22 32 22 53c0 41 -34 75 -75 75s-75 -34 -75 -75v-525h-150z" />
    <glyph glyph-name="Igrave" unicode="&#xcc;" 
d="M503 854l-29 -96l-287 88l29 96zM420 725v-750h-150v750h150z" />
    <glyph glyph-name="Iacute" unicode="&#xcd;" 
d="M216 758l-29 96l287 88l29 -96zM420 -25v750h-150v-750h150z" />
    <glyph glyph-name="Icircumflex" unicode="&#xce;" 
d="M503 854l-30 -96l-128 40l-129 -40l-30 96l159 48zM420 -25v750h-150v-750h150z" />
    <glyph glyph-name="Idieresis" unicode="&#xcf;" 
d="M248 903c29 -29 29 -77 0 -106c-30 -29 -77 -29 -106 0c-30 29 -30 77 0 106c29 29 76 29 106 0zM548 903c29 -29 29 -77 0 -106c-30 -29 -77 -29 -106 0c-30 29 -30 77 0 106c29 29 76 29 106 0zM420 725v-750h-150v750h150z" />
    <glyph glyph-name="multiply" unicode="&#xd7;" horiz-adv-x="817" 
d="M610 597l107 -106l-142 -141l142 -141l-107 -106l-141 141l-141 -141l-106 106l141 141l-141 141l106 106l141 -141z" />
    <glyph glyph-name="Ntilde" unicode="&#xd1;" horiz-adv-x="1090" 
d="M705 782c-43 -13 -91 -10 -133 13c-19 10 -39 11 -58 5c-9 -2 -17 -7 -25 -13l-19 -16l-63 78l19 16c18 14 38 25 59 31c43 13 91 10 133 -13c19 -10 39 -11 58 -5c9 3 17 7 25 13l19 16l63 -78l-19 -15c-18 -15 -38 -25 -59 -32zM270 725v-750h150v438l459 -438h41v750
h-150v-438l-460 438h-40z" />
    <glyph glyph-name="Ograve" unicode="&#xd2;" horiz-adv-x="990" 
d="M703 854l-29 -96l-287 88l29 96zM920 350c0 -207 -168 -375 -375 -375s-375 168 -375 375s168 375 375 375s375 -168 375 -375zM545 575c-124 0 -225 -101 -225 -225s101 -225 225 -225s225 101 225 225s-101 225 -225 225z" />
    <glyph glyph-name="Oacute" unicode="&#xd3;" horiz-adv-x="990" 
d="M417 758l-30 96l287 88l29 -96zM920 350c0 207 -168 375 -375 375s-375 -168 -375 -375s168 -375 375 -375s375 168 375 375zM545 575c125 0 225 -101 225 -225s-100 -225 -225 -225c-124 0 -225 101 -225 225s101 225 225 225z" />
    <glyph glyph-name="Ocircumflex" unicode="&#xd4;" horiz-adv-x="990" 
d="M703 854l-29 -96l-129 40l-129 -40l-29 96l158 48zM920 350c0 207 -168 375 -375 375s-375 -168 -375 -375s168 -375 375 -375s375 168 375 375zM545 575c124 0 225 -101 225 -225s-101 -225 -225 -225s-225 101 -225 225s101 225 225 225z" />
    <glyph glyph-name="Otilde" unicode="&#xd5;" horiz-adv-x="990" 
d="M654 782c-42 -13 -90 -10 -133 13c-18 10 -39 11 -57 5c-9 -2 -18 -7 -25 -13l-19 -16l-64 78l19 16c18 14 38 25 60 31c42 13 90 10 133 -13c18 -10 39 -11 57 -5c9 3 18 7 26 13l18 16l64 -78l-19 -15c-18 -15 -38 -25 -60 -32zM920 350c0 207 -168 375 -375 375
c-208 0 -375 -168 -375 -375s167 -375 375 -375c207 0 375 168 375 375zM545 575c124 0 225 -101 225 -225s-101 -225 -225 -225c-125 0 -225 101 -225 225s100 225 225 225z" />
    <glyph glyph-name="Odieresis" unicode="&#xd6;" horiz-adv-x="990" 
d="M448 903c29 -29 29 -77 0 -106c-30 -29 -77 -29 -106 0c-30 29 -30 77 0 106c29 29 76 29 106 0zM748 903c29 -29 29 -77 0 -106c-30 -29 -77 -29 -106 0c-30 29 -30 77 0 106c29 29 76 29 106 0zM920 350c0 -207 -168 -375 -375 -375s-375 168 -375 375s168 375 375 375
s375 -168 375 -375zM545 575c-125 0 -225 -101 -225 -225s100 -225 225 -225c124 0 225 101 225 225s-101 225 -225 225z" />
    <glyph glyph-name="OE" unicode="&#x152;" horiz-adv-x="1305" 
d="M1145 575h-400v-225h300v-150h-300v-75h400v-150h-600c-207 0 -375 168 -375 375s168 375 375 375h600v-150zM545 125h50v450h-50c-124 0 -225 -101 -225 -225s101 -225 225 -225z" />
    <glyph glyph-name="period" unicode="." horiz-adv-x="450" 
d="M350 125v-150h-150v150h150z" />
    <glyph glyph-name="colon" unicode=":" horiz-adv-x="450" 
d="M350 125v-150h-150v150h150zM350 525v-150h-150v150h150z" />
    <glyph glyph-name="Scaron" unicode="&#x160;" horiz-adv-x="780" 
d="M574 902l29 -95l-158 -49l-158 49l29 95l129 -39zM445 425c124 0 225 -101 225 -225s-101 -225 -225 -225c-107 0 -196 74 -219 174l144 51c0 -41 34 -75 75 -75s75 34 75 75s-34 75 -75 75c-124 0 -225 101 -225 225s101 225 225 225c107 0 196 -74 219 -174l-144 -51
c0 41 -34 75 -75 75s-75 -34 -75 -75s34 -75 75 -75z" />
    <glyph glyph-name="Thorn" unicode="&#xde;" horiz-adv-x="930" 
d="M545 625c152 0 275 -123 275 -275s-123 -275 -275 -275h-125v-100h-150v750h150v-100h125zM545 225c69 0 125 56 125 125s-56 125 -125 125h-125v-250h125z" />
    <glyph glyph-name="Ugrave" unicode="&#xd9;" horiz-adv-x="1050" 
d="M733 854l-29 -96l-287 88l29 96zM900 725v-425c0 -179 -146 -325 -325 -325s-325 146 -325 325v425h150v-425c0 -97 78 -175 175 -175s175 78 175 175v425h150z" />
    <glyph glyph-name="Uacute" unicode="&#xda;" horiz-adv-x="1050" 
d="M446 758l-29 96l287 88l29 -96zM900 300v425h-150v-425c0 -97 -78 -175 -175 -175s-175 78 -175 175v425h-150v-425c0 -179 146 -325 325 -325s325 146 325 325z" />
    <glyph glyph-name="Ucircumflex" unicode="&#xdb;" horiz-adv-x="1050" 
d="M733 854l-30 -96l-128 40l-129 -40l-29 96l158 48zM900 300v425h-150v-425c0 -97 -79 -175 -175 -175c-97 0 -175 78 -175 175v425h-150v-425c0 -179 145 -325 325 -325c179 0 325 146 325 325z" />
    <glyph glyph-name="Udieresis" unicode="&#xdc;" horiz-adv-x="1050" 
d="M478 903c30 -29 30 -77 0 -106c-29 -29 -76 -29 -106 0c-29 29 -29 77 0 106c30 29 77 29 106 0zM778 903c30 -29 30 -77 0 -106c-29 -29 -76 -29 -106 0c-29 29 -29 77 0 106c30 29 77 29 106 0zM900 725v-425c0 -179 -145 -325 -325 -325c-179 0 -325 146 -325 325v425
h150v-425c0 -97 79 -175 175 -175c97 0 175 78 175 175v425h150z" />
    <glyph glyph-name="Yacute" unicode="&#xdd;" horiz-adv-x="893" 
d="M368 758l-30 96l287 88l29 -96zM120 725l301 -481v-269h150v269l302 481h-177l-200 -318l-199 318h-177z" />
    <glyph glyph-name="Ydieresis" unicode="&#x178;" horiz-adv-x="893" 
d="M399 903c30 -29 30 -77 0 -106c-29 -29 -77 -29 -106 0s-29 77 0 106s77 29 106 0zM699 903c30 -29 30 -77 0 -106c-29 -29 -77 -29 -106 0s-29 77 0 106s77 29 106 0zM421 244l-301 481h177l199 -318l200 318h177l-302 -481v-269h-150v269z" />
    <glyph glyph-name="yen" unicode="&#xa5;" horiz-adv-x="993" 
d="M923 725l-188 -300h61v-150h-155l-20 -31v-19h175v-150h-175v-100h-150v100h-175v150h175v19l-19 31h-156v150h62l-188 300h177l199 -318l200 318h177z" />
    <glyph glyph-name="Zcaron" unicode="&#x17d;" horiz-adv-x="864" 
d="M618 902l30 -95l-158 -49l-158 49l29 95l129 -39zM222 575v150h552l-330 -600h313v-150h-567l330 600h-298z" />
    <glyph glyph-name="agrave" unicode="&#xe0;" horiz-adv-x="1085" 
d="M749 854l-30 -96l-287 88l30 96zM854 -25l-68 125h-387l-68 -125h-171l433 791l432 -791h-171zM481 250h223l-111 204z" />
    <glyph glyph-name="aacute" unicode="&#xe1;" horiz-adv-x="1085" 
d="M462 758l-29 96l286 88l30 -96zM854 -25l-68 125h-387l-68 -125h-171l433 791l432 -791h-171zM481 250h223l-111 204z" />
    <glyph glyph-name="acircumflex" unicode="&#xe2;" horiz-adv-x="1085" 
d="M751 854l-29 -96l-129 40l-129 -40l-29 96l158 48zM855 -25l-69 125h-386l-68 -125h-171l432 791l432 -791h-170zM482 250h222l-111 204z" />
    <glyph glyph-name="atilde" unicode="&#xe3;" horiz-adv-x="1085" 
d="M703 782c-43 -13 -91 -10 -133 13c-19 10 -39 11 -58 5c-9 -2 -17 -7 -25 -13l-19 -16l-63 78l19 15c18 15 38 25 59 32c43 13 91 10 133 -13c19 -10 39 -11 58 -5c9 2 17 7 25 13l19 16l63 -78l-19 -15c-18 -15 -38 -25 -59 -32zM855 -25l-69 125h-386l-68 -125h-171
l432 791l432 -791h-170zM482 250h222l-111 204z" />
    <glyph glyph-name="adieresis" unicode="&#xe4;" horiz-adv-x="1085" 
d="M495 903c30 -29 30 -77 0 -106c-29 -29 -77 -29 -106 0s-29 77 0 106s77 29 106 0zM795 903c30 -29 30 -77 0 -106c-29 -29 -77 -29 -106 0s-29 77 0 106s77 29 106 0zM854 -25l-69 125h-386l-68 -125h-171l432 791l433 -791h-171zM481 250h222l-111 204z" />
    <glyph glyph-name="aring" unicode="&#xe5;" horiz-adv-x="1085" 
d="M662 946c39 -39 39 -103 0 -142s-102 -39 -141 0s-39 103 0 142s102 39 141 0zM853 -25l-68 125h-387l-68 -125h-171l432 792l433 -792h-171zM480 250h223l-112 204z" />
    <glyph glyph-name="ae" unicode="&#xe6;" horiz-adv-x="1348" 
d="M1188 575h-400v-225h300v-150h-300v-75h400v-150h-550v100h-253l-54 -100h-171l409 750h619v-150zM467 225h171v313z" />
    <glyph glyph-name="egrave" unicode="&#xe8;" horiz-adv-x="980" 
d="M703 854l-29 -96l-287 88l29 96zM270 -25v750h550v-150h-400v-225h300v-150h-300v-75h400v-150h-550z" />
    <glyph glyph-name="eacute" unicode="&#xe9;" horiz-adv-x="980" 
d="M416 758l-29 96l287 88l29 -96zM270 725v-750h550v150h-400v75h300v150h-300v225h400v150h-550z" />
    <glyph glyph-name="ecircumflex" unicode="&#xea;" horiz-adv-x="980" 
d="M703 854l-29 -96l-129 40l-129 -40l-29 96l158 48zM270 725v-750h550v150h-400v75h300v150h-300v225h400v150h-550z" />
    <glyph glyph-name="edieresis" unicode="&#xeb;" horiz-adv-x="980" 
d="M448 903c30 -29 30 -77 0 -106c-29 -29 -76 -29 -106 0c-29 29 -29 77 0 106c30 29 77 29 106 0zM748 903c30 -29 30 -77 0 -106c-29 -29 -76 -29 -106 0c-29 29 -29 77 0 106c30 29 77 29 106 0zM270 -25v750h550v-150h-400v-225h300v-150h-300v-75h400v-150h-550z" />
    <glyph glyph-name="igrave" unicode="&#xec;" horiz-adv-x="565" 
d="M503 854l-29 -96l-287 88l29 96zM420 725v-750h-150v750h150z" />
    <glyph glyph-name="iacute" unicode="&#xed;" 
d="M216 758l-29 96l287 88l29 -96zM420 -25v750h-150v-750h150z" />
    <glyph glyph-name="icircumflex" unicode="&#xee;" 
d="M503 854l-30 -96l-128 40l-129 -40l-30 96l159 48zM420 -25v750h-150v-750h150z" />
    <glyph glyph-name="idieresis" unicode="&#xef;" 
d="M248 903c29 -29 29 -77 0 -106c-30 -29 -77 -29 -106 0c-30 29 -30 77 0 106c29 29 76 29 106 0zM548 903c29 -29 29 -77 0 -106c-30 -29 -77 -29 -106 0c-30 29 -30 77 0 106c29 29 76 29 106 0zM420 725v-750h-150v750h150z" />
    <glyph glyph-name="eth" unicode="&#xf0;" horiz-adv-x="1050" 
d="M595 725c207 0 375 -168 375 -375s-168 -375 -375 -375h-275v200h-100v150h100v400h275zM595 125c124 0 225 101 225 225s-101 225 -225 225h-125v-250h100v-150h-100v-50h125z" />
    <glyph glyph-name="ntilde" unicode="&#xf1;" horiz-adv-x="1090" 
d="M705 782c-43 -13 -91 -10 -133 13c-19 10 -39 11 -58 5c-9 -2 -17 -7 -25 -13l-19 -16l-63 78l19 16c18 14 38 25 59 31c43 13 91 10 133 -13c19 -10 39 -11 58 -5c9 3 17 7 25 13l19 16l63 -78l-19 -15c-18 -15 -38 -25 -59 -32zM270 725v-750h150v438l459 -438h41v750
h-150v-438l-460 438h-40z" />
    <glyph glyph-name="ograve" unicode="&#xf2;" horiz-adv-x="990" 
d="M703 854l-29 -96l-287 88l29 96zM920 350c0 -207 -168 -375 -375 -375s-375 168 -375 375s168 375 375 375s375 -168 375 -375zM545 575c-124 0 -225 -101 -225 -225s101 -225 225 -225s225 101 225 225s-101 225 -225 225z" />
    <glyph glyph-name="oacute" unicode="&#xf3;" horiz-adv-x="990" 
d="M417 758l-30 96l287 88l29 -96zM920 350c0 207 -168 375 -375 375s-375 -168 -375 -375s168 -375 375 -375s375 168 375 375zM545 575c125 0 225 -101 225 -225s-100 -225 -225 -225c-124 0 -225 101 -225 225s101 225 225 225z" />
    <glyph glyph-name="ocircumflex" unicode="&#xf4;" horiz-adv-x="990" 
d="M703 854l-29 -96l-129 40l-129 -40l-29 96l158 48zM920 350c0 207 -168 375 -375 375s-375 -168 -375 -375s168 -375 375 -375s375 168 375 375zM545 575c124 0 225 -101 225 -225s-101 -225 -225 -225s-225 101 -225 225s101 225 225 225z" />
    <glyph glyph-name="otilde" unicode="&#xf5;" horiz-adv-x="990" 
d="M654 782c-42 -13 -90 -10 -133 13c-18 10 -39 11 -57 5c-9 -2 -18 -7 -25 -13l-19 -16l-64 78l19 16c18 14 38 25 60 31c42 13 90 10 133 -13c18 -10 39 -11 57 -5c9 3 18 7 26 13l18 16l64 -78l-19 -15c-18 -15 -38 -25 -60 -32zM920 350c0 207 -168 375 -375 375
c-208 0 -375 -168 -375 -375s167 -375 375 -375c207 0 375 168 375 375zM545 575c124 0 225 -101 225 -225s-101 -225 -225 -225c-125 0 -225 101 -225 225s100 225 225 225z" />
    <glyph glyph-name="odieresis" unicode="&#xf6;" horiz-adv-x="990" 
d="M448 903c29 -29 29 -77 0 -106c-30 -29 -77 -29 -106 0c-30 29 -30 77 0 106c29 29 76 29 106 0zM748 903c29 -29 29 -77 0 -106c-30 -29 -77 -29 -106 0c-30 29 -30 77 0 106c29 29 76 29 106 0zM920 350c0 -207 -168 -375 -375 -375s-375 168 -375 375s168 375 375 375
s375 -168 375 -375zM545 575c-125 0 -225 -101 -225 -225s100 -225 225 -225c124 0 225 101 225 225s-101 225 -225 225z" />
    <glyph glyph-name="ugrave" unicode="&#xf9;" horiz-adv-x="1050" 
d="M733 854l-29 -96l-287 88l29 96zM900 725v-425c0 -179 -146 -325 -325 -325s-325 146 -325 325v425h150v-425c0 -97 78 -175 175 -175s175 78 175 175v425h150z" />
    <glyph glyph-name="uacute" unicode="&#xfa;" horiz-adv-x="1050" 
d="M446 758l-29 96l287 88l29 -96zM900 300v425h-150v-425c0 -97 -78 -175 -175 -175s-175 78 -175 175v425h-150v-425c0 -179 146 -325 325 -325s325 146 325 325z" />
    <glyph glyph-name="ucircumflex" unicode="&#xfb;" horiz-adv-x="1050" 
d="M733 854l-30 -96l-128 40l-129 -40l-29 96l158 48zM900 300v425h-150v-425c0 -97 -79 -175 -175 -175c-97 0 -175 78 -175 175v425h-150v-425c0 -179 145 -325 325 -325c179 0 325 146 325 325z" />
    <glyph glyph-name="udieresis" unicode="&#xfc;" horiz-adv-x="1050" 
d="M478 903c30 -29 30 -77 0 -106c-29 -29 -76 -29 -106 0c-29 29 -29 77 0 106c30 29 77 29 106 0zM778 903c30 -29 30 -77 0 -106c-29 -29 -76 -29 -106 0c-29 29 -29 77 0 106c30 29 77 29 106 0zM900 725v-425c0 -179 -145 -325 -325 -325c-179 0 -325 146 -325 325v425
h150v-425c0 -97 79 -175 175 -175c97 0 175 78 175 175v425h150z" />
    <glyph glyph-name="yacute" unicode="&#xfd;" horiz-adv-x="893" 
d="M368 758l-30 96l287 88l29 -96zM120 725l301 -481v-269h150v269l302 481h-177l-200 -318l-199 318h-177z" />
    <glyph glyph-name="thorn" unicode="&#xfe;" horiz-adv-x="930" 
d="M545 625c152 0 275 -123 275 -275s-123 -275 -275 -275h-125v-100h-150v750h150v-100h125zM545 225c69 0 125 56 125 125s-56 125 -125 125h-125v-250h125z" />
    <glyph glyph-name="ydieresis" unicode="&#xff;" horiz-adv-x="893" 
d="M399 903c30 -29 30 -77 0 -106c-29 -29 -77 -29 -106 0s-29 77 0 106s77 29 106 0zM699 903c30 -29 30 -77 0 -106c-29 -29 -77 -29 -106 0s-29 77 0 106s77 29 106 0zM421 244l-301 481h177l199 -318l200 318h177l-302 -481v-269h-150v269z" />
    <glyph glyph-name="zcaron" unicode="&#x17e;" horiz-adv-x="864" 
d="M618 902l30 -95l-158 -49l-158 49l29 95l129 -39zM222 575v150h552l-330 -600h313v-150h-567l330 600h-298z" />
    <glyph glyph-name="space" unicode=" " horiz-adv-x="550" 
 />
    <glyph glyph-name="brokenbar" unicode="&#xa6;" 
d="M420 825v-400h-150v400h150zM420 275v-400h-150v400h150z" />
    <glyph glyph-name="dieresis" unicode="&#xa8;" horiz-adv-x="750" 
d="M327 903c30 -29 30 -77 0 -106c-29 -29 -77 -29 -106 0s-29 77 0 106s77 29 106 0zM627 903c30 -29 30 -77 0 -106c-29 -29 -77 -29 -106 0s-29 77 0 106s77 29 106 0z" />
    <glyph glyph-name="ellipsis" unicode="&#x2026;" horiz-adv-x="1000" 
d="M350 125v-150h-150v150h150zM625 125v-150h-150v150h150zM900 125v-150h-150v150h150z" />
    <glyph glyph-name="tilde" unicode="&#x2dc;" horiz-adv-x="676" 
d="M498 782c-43 -13 -91 -10 -134 13c-18 10 -38 11 -57 5c-9 -2 -17 -7 -25 -13l-19 -16l-63 78l19 15c18 15 38 25 59 32c43 13 91 10 133 -13c19 -10 39 -11 58 -5c9 2 17 7 25 13l19 16l63 -78l-19 -15c-18 -15 -38 -25 -59 -32z" />
    <glyph glyph-name="asciitilde" unicode="~" horiz-adv-x="677" 
d="M498 293c-43 -13 -91 -10 -133 13c-18 10 -39 11 -57 5c-10 -3 -18 -7 -26 -13l-18 -16l-64 77l19 16c18 15 38 25 59 32c43 13 91 10 134 -13c18 -10 39 -11 57 -5c9 2 18 7 25 13l19 16l64 -78l-20 -16c-17 -14 -37 -25 -59 -31z" />
    <glyph glyph-name="oe" unicode="&#x153;" horiz-adv-x="1305" 
d="M1145 575h-400v-225h300v-150h-300v-75h400v-150h-600c-207 0 -375 168 -375 375s168 375 375 375h600v-150zM545 125h50v450h-50c-124 0 -225 -101 -225 -225s101 -225 225 -225z" />
    <glyph glyph-name="scaron" unicode="&#x161;" horiz-adv-x="780" 
d="M574 902l29 -95l-158 -49l-158 49l29 95l129 -39zM445 425c124 0 225 -101 225 -225s-101 -225 -225 -225c-107 0 -196 74 -219 174l144 51c0 -41 34 -75 75 -75s75 34 75 75s-34 75 -75 75c-124 0 -225 101 -225 225s101 225 225 225c107 0 196 -74 219 -174l-144 -51
c0 41 -34 75 -75 75s-75 -34 -75 -75s34 -75 75 -75z" />
    <glyph glyph-name="Lslash" unicode="&#x141;" horiz-adv-x="1000" 
d="M500 125h400v-150h-550v275l-100 -30v156l100 30v319h150v-275l100 30v-156l-100 -30v-169z" />
    <glyph glyph-name="lslash" unicode="&#x142;" horiz-adv-x="1000" 
d="M500 125h400v-150h-550v275l-100 -30v156l100 30v319h150v-275l100 30v-156l-100 -30v-169z" />
    <glyph glyph-name="Oslash" unicode="&#xd8;" horiz-adv-x="1038" 
d="M958 633l-76 -76c39 -59 62 -131 62 -207c0 -207 -168 -375 -375 -375c-76 0 -148 23 -207 62l-76 -76l-106 106l76 76c-39 59 -62 131 -62 207c0 207 168 375 375 375c76 0 148 -23 207 -62l76 76zM344 350c0 -35 8 -68 22 -97l300 300c-29 14 -62 22 -97 22
c-124 0 -225 -101 -225 -225zM794 350c0 35 -8 68 -22 97l-300 -300c29 -14 62 -22 97 -22c124 0 225 101 225 225z" />
    <glyph glyph-name="oslash" unicode="&#xf8;" horiz-adv-x="1038" 
d="M958 633l-76 -76c39 -59 62 -131 62 -207c0 -207 -168 -375 -375 -375c-76 0 -148 23 -207 62l-76 -76l-106 106l76 76c-39 59 -62 131 -62 207c0 207 168 375 375 375c76 0 148 -23 207 -62l76 76zM344 350c0 -35 8 -68 22 -97l300 300c-29 14 -62 22 -97 22
c-124 0 -225 -101 -225 -225zM794 350c0 35 -8 68 -22 97l-300 -300c29 -14 62 -22 97 -22c124 0 225 101 225 225z" />
    <glyph glyph-name="asciicircum" unicode="^" horiz-adv-x="616" 
d="M516 366l-30 -96l-128 40l-129 -40l-29 96l158 48z" />
    <glyph glyph-name="quotedbl" unicode="&#x22;" horiz-adv-x="675" 
d="M350 725v-250h-150v250h150zM575 725v-250h-150v250h150z" />
    <glyph glyph-name="quotesingle" unicode="'" horiz-adv-x="450" 
d="M350 725v-250h-150v250h150z" />
    <glyph glyph-name="quotesinglbase" unicode="&#x201a;" horiz-adv-x="450" 
d="M200 -125v250h150v-131l-60 -119h-90z" />
    <glyph glyph-name="quotedblbase" unicode="&#x201e;" horiz-adv-x="650" 
d="M400 -125v250h150v-131l-59 -119h-91zM200 -125v250h150v-131l-59 -119h-91z" />
    <glyph glyph-name="quoteleft" unicode="&#x2018;" horiz-adv-x="450" 
d="M350 725v-250h-150v131l59 119h91z" />
    <glyph glyph-name="quoteright" unicode="&#x2019;" horiz-adv-x="450" 
d="M200 475v250h150v-131l-60 -119h-90z" />
    <glyph glyph-name="quotedblleft" unicode="&#x201c;" horiz-adv-x="650" 
d="M550 725v-250h-150v131l59 119h91zM350 725v-250h-150v131l59 119h91z" />
    <glyph glyph-name="quotedblright" unicode="&#x201d;" horiz-adv-x="650" 
d="M400 475v250h150v-131l-59 -119h-91zM200 475v250h150v-131l-59 -119h-91z" />
    <glyph glyph-name="ring" unicode="&#x2da;" horiz-adv-x="502" 
d="M372 946c39 -39 39 -103 0 -142s-103 -39 -142 0s-39 103 0 142s103 39 142 0z" />
    <glyph glyph-name="caron" unicode="&#x2c7;" horiz-adv-x="616" 
d="M486 902l30 -95l-158 -49l-158 49l29 95l129 -39z" />
    <glyph glyph-name="dotaccent" unicode="&#x2d9;" horiz-adv-x="450" 
d="M328 903c29 -29 29 -77 0 -106s-77 -29 -106 0s-29 77 0 106s77 29 106 0z" />
    <glyph glyph-name="slash" unicode="/" horiz-adv-x="710" 
d="M130 17l419 740l131 -74l-420 -740z" />
    <glyph glyph-name="backslash" unicode="\" horiz-adv-x="710" 
d="M260 757l420 -740l-131 -74l-419 740z" />
    <glyph glyph-name="grave" unicode="`" horiz-adv-x="616" 
d="M516 854l-30 -96l-286 88l29 96z" />
    <glyph glyph-name="circumflex" unicode="&#x2c6;" horiz-adv-x="616" 
d="M516 854l-29 -96l-129 40l-129 -40l-29 96l158 48z" />
    <glyph glyph-name="perthousand" unicode="&#x2030;" horiz-adv-x="1389" 
d="M421 575c0 28 -23 50 -50 50c-28 0 -50 -22 -50 -50s22 -50 50 -50c27 0 50 22 50 50zM371 725c82 0 150 -67 150 -150s-68 -150 -150 -150c-83 0 -150 67 -150 150s67 150 150 150zM882 674l-548 -723l-100 76l548 723zM1169 125c0 28 -22 50 -50 50
c-27 0 -50 -22 -50 -50s23 -50 50 -50c28 0 50 22 50 50zM1119 275c83 0 150 -67 150 -150s-67 -150 -150 -150s-150 67 -150 150s67 150 150 150zM811 125c0 28 -22 50 -50 50c-27 0 -50 -22 -50 -50s23 -50 50 -50c28 0 50 22 50 50zM761 275c83 0 150 -67 150 -150
s-67 -150 -150 -150c-82 0 -150 67 -150 150s68 150 150 150z" />
    <glyph glyph-name="minus" unicode="&#x2212;" horiz-adv-x="850" 
d="M750 425v-150h-550v150h550z" />
    <glyph glyph-name="periodcentered" unicode="&#xb7;" horiz-adv-x="390" 
d="M298 403c29 -29 29 -77 0 -106s-77 -29 -106 0s-29 77 0 106s77 29 106 0z" />
    <glyph glyph-name="bullet" unicode="&#x2022;" horiz-adv-x="550" 
d="M325 475c69 0 125 -56 125 -125s-56 -125 -125 -125s-125 56 -125 125s56 125 125 125z" />
    <glyph glyph-name="logicalnot" unicode="&#xac;" horiz-adv-x="910" 
d="M210 425h550v-300h-150v150h-400v150z" />
    <glyph glyph-name="dotlessi" unicode="&#x131;" 
d="M420 725v-750h-150v750h150z" />
    <glyph glyph-name="acute" unicode="&#xb4;" horiz-adv-x="616" 
d="M229 758l-29 96l286 88l30 -96z" />
    <glyph glyph-name="registered" unicode="&#xae;" 
d="M469 674c68 -69 68 -179 0 -248c-69 -68 -179 -68 -248 0c-68 69 -68 179 0 248c69 68 179 68 248 0zM495 550c0 83 -67 150 -150 150s-150 -67 -150 -150s67 -150 150 -150s150 67 150 150zM316 542h34c19 0 34 15 34 34s-15 34 -34 34h-34v-68zM389 513l42 -65h-48
l-35 54h-32v-54h-40v202h74c41 0 74 -33 74 -74c0 -26 -14 -50 -35 -63z" />
    <glyph glyph-name="copyright" unicode="&#xa9;" 
d="M468 674c69 -69 69 -179 0 -248c-68 -68 -179 -68 -247 0c-69 69 -69 179 0 248c68 68 179 68 247 0zM495 550c0 83 -68 150 -150 150c-83 0 -150 -67 -150 -150s67 -150 150 -150c82 0 150 67 150 150zM245 549c0 56 45 101 101 101c33 0 62 -16 81 -40l4 -6l-33 -24
l-4 5c-11 15 -28 24 -48 24c-34 0 -61 -27 -61 -60c0 -34 27 -61 61 -61c20 0 37 9 48 24l4 6l33 -25l-4 -5c-19 -25 -48 -41 -81 -41c-56 0 -101 46 -101 102z" />
    <glyph glyph-name="trademark" unicode="&#x2122;" horiz-adv-x="676" 
d="M170 635v90h293l31 -45l31 45h81v-251h-90v78l-22 -32l-22 32v-78h-90v161h-55v-161h-90v161h-67z" />
    <glyph glyph-name="numbersign" unicode="#" horiz-adv-x="1000" 
d="M844 400h-94l-25 -100h95l-37 -150h-94l-42 -175h-154l42 175h-67l-42 -175h-154l42 175h-94l36 150h94l24 100h-94l36 150h95l42 175h154l-42 -175h66l43 175h154l-42 -175h94zM571 300l24 100h-66l-24 -100h66z" />
    <glyph glyph-name="mu" unicode="&#xb5;" horiz-adv-x="1090" 
d="M920 -25h-150v499l-175 -255l-175 255v-499h-150v750h159l166 -241l165 241h160v-750z" />
    <glyph glyph-name="mu" unicode="&#x3bc;" horiz-adv-x="1090" 
d="M920 -25h-150v499l-175 -255l-175 255v-499h-150v750h159l166 -241l165 241h160v-750z" />
    <glyph glyph-name="cent" unicode="&#xa2;" horiz-adv-x="787" 
d="M574 174l15 20l118 -91c-36 -57 -91 -99 -157 -118v-85h-150v85c-115 33 -200 139 -200 265s85 232 200 265v85h150v-85c66 -19 121 -61 157 -118l-118 -91l-15 20c-23 30 -59 49 -99 49c-69 0 -125 -56 -125 -125s56 -125 125 -125c40 0 76 19 99 49z" />
    <glyph glyph-name="Ccedilla" unicode="&#xc7;" horiz-adv-x="939" 
d="M735 215l15 20l119 -91l-15 -20c-59 -78 -147 -132 -249 -146v-103h-125v75h25v28c-183 25 -325 182 -325 372c0 207 168 375 375 375c122 0 231 -59 299 -149l15 -20l-119 -91l-15 20c-41 55 -106 90 -180 90c-124 0 -225 -101 -225 -225s101 -225 225 -225
c74 0 139 35 180 90z" />
    <glyph glyph-name="ccedilla" unicode="&#xe7;" horiz-adv-x="939" 
d="M735 215l15 20l119 -91l-15 -20c-59 -78 -147 -132 -249 -146v-103h-125v75h25v28c-183 25 -325 182 -325 372c0 207 168 375 375 375c122 0 231 -59 299 -149l15 -20l-119 -91l-15 20c-41 55 -106 90 -180 90c-124 0 -225 -101 -225 -225s101 -225 225 -225
c74 0 139 35 180 90z" />
    <glyph glyph-name="cedilla" unicode="&#xb8;" horiz-adv-x="425" 
d="M225 25h100v-150h-125v75h25v75z" />
    <glyph glyph-name="ordfeminine" unicode="&#xaa;" horiz-adv-x="612" 
d="M170 425l186 341l186 -341h-114l-18 33h-108l-18 -33h-114z" />
    <glyph glyph-name="ordmasculine" unicode="&#xba;" horiz-adv-x="600" 
d="M400 575c0 28 -23 50 -50 50c-28 0 -50 -22 -50 -50s22 -50 50 -50c27 0 50 22 50 50zM350 725c82 0 150 -67 150 -150s-68 -150 -150 -150c-83 0 -150 67 -150 150s67 150 150 150z" />
    <glyph glyph-name="onesuperior" unicode="&#xb9;" horiz-adv-x="340" 
d="M270 725v-300h-100v300h100z" />
    <glyph glyph-name="twosuperior" unicode="&#xb2;" horiz-adv-x="470" 
d="M256 562l-47 -24l-15 30c-7 15 -11 31 -11 49c0 59 48 108 108 108s109 -49 109 -108l-1 -7c-1 -24 -10 -46 -25 -63l-18 -22h44v-100h-230v34s51 61 86 103zM284 613l5 -12l9 10c1 1 2 3 2 6c0 4 -4 8 -9 8c-4 0 -8 -4 -8 -8c0 -2 0 -3 1 -4z" />
    <glyph glyph-name="threesuperior" unicode="&#xb3;" horiz-adv-x="467" 
d="M191 725h206v-33l-50 -75c24 -20 39 -50 39 -84c0 -59 -48 -108 -108 -108c-44 0 -82 26 -99 63l-9 21l56 33h-49l55 83h-41v100zM285 530c3 4 1 9 -3 11c-2 1 -3 1 -4 1h-13l5 -12c1 -1 2 -3 4 -4c4 -2 9 0 11 4z" />
    <glyph glyph-name="onehalf" unicode="&#xbd;" horiz-adv-x="1005" 
d="M359 725v-300h-100v300h100zM867 674l-548 -723l-99 76l547 723zM741 112l-47 -24l-14 30c-8 15 -12 31 -12 49c0 59 49 108 108 108c60 0 109 -49 109 -108v-7c-2 -24 -11 -46 -26 -63l-18 -22h44v-100h-230v34s51 61 86 103zM769 163l6 -12l8 10c1 1 2 3 2 6
c0 4 -4 8 -9 8c-4 0 -8 -4 -8 -8c0 -2 1 -3 1 -4z" />
    <glyph glyph-name="threequarters" unicode="&#xbe;" horiz-adv-x="1022" 
d="M242 725h206v-33l-50 -75c24 -20 39 -50 39 -84c0 -59 -48 -108 -108 -108c-44 0 -82 26 -99 63l-9 21l56 33h-49l55 83h-41v100zM336 530c2 4 1 9 -4 11c-1 1 -2 1 -3 1h-13l5 -12c1 -1 2 -3 4 -4c4 -2 9 0 11 4zM883 674l-548 -723l-100 76l548 723zM661 33l58 251
l98 -22l-7 -29h59v-100h33v-100h-33v-58h-100v58h-108z" />
    <glyph glyph-name="onequarter" unicode="&#xbc;" horiz-adv-x="1007" 
d="M359 725v-300h-100v300h100zM867 674l-547 -723l-100 76l548 723zM645 33l59 251l97 -22l-6 -29h58v-100h34v-100h-34v-58h-100v58h-108z" />
    <glyph glyph-name="fraction" unicode="&#x2044;" horiz-adv-x="807" 
d="M777 674l-548 -723l-99 76l548 723z" />
    <glyph glyph-name="paragraph" unicode="&#xb6;" horiz-adv-x="860" 
d="M730 725v-150h-50v-600h-300v301c-113 13 -200 108 -200 224c0 124 101 225 225 225h325z" />
    <glyph glyph-name="A" unicode="A" horiz-adv-x="1085" 
d="M854 -25l-69 125h-386l-68 -125h-171l432 791l433 -791h-171zM481 250h222l-111 204z" />
    <glyph glyph-name="afii61352" unicode="&#x2116;" horiz-adv-x="1496" 
d="M190 -69v151c24 -1 46 -6 81 5c181 60 168 586 168 614l137 26l174 -424c23 164 61 410 122 506l128 -75c-63 -133 -114 -464 -135 -756l-135 -20l-163 396c-36 -223 -122 -424 -345 -424zM1316 190v-150h-307v150h307zM1376 418c0 -114 -92 -206 -206 -206
s-206 92 -206 206s92 206 206 206s206 -92 206 -206zM1170 474c-31 0 -56 -25 -56 -56s25 -56 56 -56s56 25 56 56s-25 56 -56 56z" />
    </font>
</defs>
</svg>
